<svg width="40" height="30" viewBox="0 0 40 30" fill="none" xmlns="http://www.w3.org/2000/svg">
<path d="M36.6 10.2H21.6C21.6016 10.8494 21.3909 11.4815 21 12H22.2C22.6774 12 23.1352 12.1896 23.4728 12.5272C23.8104 12.8648 24 13.3226 24 13.8C24 14.2774 23.8104 14.7352 23.4728 15.0728C23.1352 15.4104 22.6774 15.6 22.2 15.6H19.092C19.1714 16.0317 19.1545 16.4756 19.0426 16.9C18.9306 17.3245 18.7264 17.7189 18.4444 18.0553C18.1625 18.3918 17.8097 18.6618 17.4114 18.8462C17.0131 19.0305 16.5789 19.1247 16.14 19.122C15.605 19.122 15.0794 18.9813 14.616 18.714C14.132 18.9647 13.6283 19.1754 13.11 19.344C12.9439 19.9895 12.5678 20.5615 12.041 20.9699C11.5142 21.3783 10.8666 21.6 10.2 21.6C9.53343 21.6 8.88577 21.3783 8.35897 20.9699C7.83216 20.5615 7.45611 19.9895 7.29 19.344C6.77166 19.1754 6.26798 18.9647 5.784 18.714C5.20928 19.0458 4.54193 19.1808 3.88344 19.0985C3.22495 19.0162 2.61136 18.721 2.136 18.258C1.66646 17.7864 1.36689 17.1723 1.28435 16.512C1.20181 15.8516 1.34099 15.1826 1.68 14.61C1.43124 14.1279 1.22254 13.6263 1.056 13.11C0.674135 13.0104 0.315411 12.8372 0 12.6V27C0.000287837 27.7956 0.316451 28.5585 0.878997 29.121C1.44154 29.6835 2.20444 29.9997 3 30H36.6C37.3956 29.9997 38.1585 29.6835 38.721 29.121C39.2835 28.5585 39.5997 27.7956 39.6 27V13.2C39.5997 12.4044 39.2835 11.6415 38.721 11.079C38.1585 10.5164 37.3956 10.2003 36.6 10.2ZM33.6 27C33.5995 27.159 33.5362 27.3113 33.4237 27.4237C33.3113 27.5362 33.159 27.5995 33 27.6H6.6C6.44102 27.5995 6.28868 27.5362 6.17626 27.4237C6.06384 27.3113 6.00047 27.159 6 27V24.6C6.00047 24.441 6.06384 24.2887 6.17626 24.1763C6.28868 24.0638 6.44102 24.0005 6.6 24H33C33.159 24.0005 33.3113 24.0638 33.4237 24.1763C33.5362 24.2887 33.5995 24.441 33.6 24.6V27ZM35.4 16.2C35.044 16.2 34.696 16.0944 34.4 15.8966C34.104 15.6989 33.8733 15.4177 33.737 15.0888C33.6008 14.7599 33.5651 14.398 33.6346 14.0488C33.704 13.6997 33.8755 13.3789 34.1272 13.1272C34.3789 12.8755 34.6997 12.704 35.0488 12.6346C35.398 12.5651 35.7599 12.6008 36.0888 12.737C36.4177 12.8733 36.6989 13.104 36.8966 13.4C37.0944 13.696 37.2 14.044 37.2 14.4C37.1986 14.877 37.0085 15.334 36.6712 15.6712C36.334 16.0085 35.877 16.1986 35.4 16.2ZM22.8 13.8C22.7995 13.641 22.7362 13.4887 22.6237 13.3763C22.5113 13.2638 22.359 13.2005 22.2 13.2H19.314C19.1765 13.6103 19.0121 14.0112 18.822 14.4H22.2C22.359 14.3995 22.5113 14.3362 22.6237 14.2237C22.7362 14.1113 22.7995 13.959 22.8 13.8Z" fill="#008CAC"/>
<path d="M35.4008 15C35.7322 15 36.0008 14.7314 36.0008 14.4C36.0008 14.0687 35.7322 13.8 35.4008 13.8C35.0694 13.8 34.8008 14.0687 34.8008 14.4C34.8008 14.7314 35.0694 15 35.4008 15Z" fill="#008CAC"/>
<path d="M32.3992 25.2H7.19922V26.4H32.3992V25.2Z" fill="#008CAC"/>
<path d="M18.6 8.4H18.396C18.1846 7.43227 17.8026 6.50989 17.268 5.676L17.412 5.532C17.7491 5.19452 17.9385 4.73702 17.9385 4.26C17.9385 3.78298 17.7491 3.32548 17.412 2.988C17.069 2.66156 16.6135 2.4795 16.14 2.4795C15.6665 2.4795 15.211 2.66156 14.868 2.988L14.724 3.132C13.8901 2.59737 12.9677 2.21542 12 2.004V1.8C12 1.32261 11.8104 0.864773 11.4728 0.527208C11.1352 0.189642 10.6774 0 10.2 0C9.72261 0 9.26477 0.189642 8.92721 0.527208C8.58964 0.864773 8.4 1.32261 8.4 1.8V2.004C7.43227 2.21541 6.50989 2.59737 5.676 3.132L5.532 2.988C5.18896 2.66156 4.73354 2.4795 4.26 2.4795C3.78646 2.4795 3.33104 2.66156 2.988 2.988C2.65086 3.32547 2.46148 3.78298 2.46148 4.26C2.46148 4.73702 2.65086 5.19453 2.988 5.532L3.132 5.676C2.59736 6.50988 2.2154 7.43226 2.004 8.4H1.8C1.32261 8.4 0.864773 8.58964 0.527208 8.92721C0.189642 9.26477 0 9.72261 0 10.2C0 10.6774 0.189642 11.1352 0.527208 11.4728C0.864773 11.8104 1.32261 12 1.8 12H2.004C2.2154 12.9677 2.59735 13.8901 3.132 14.724L2.988 14.868C2.65086 15.2055 2.46148 15.663 2.46148 16.14C2.46148 16.617 2.65086 17.0745 2.988 17.412C3.33104 17.7384 3.78646 17.9205 4.26 17.9205C4.73354 17.9205 5.18896 17.7384 5.532 17.412L5.676 17.268C6.50988 17.8026 7.43226 18.1846 8.4 18.396V18.6C8.4 19.0774 8.58964 19.5352 8.92721 19.8728C9.26477 20.2104 9.72261 20.4 10.2 20.4C10.6774 20.4 11.1352 20.2104 11.4728 19.8728C11.8104 19.5352 12 19.0774 12 18.6V18.396C12.9677 18.1846 13.8901 17.8026 14.724 17.268L14.868 17.412C15.211 17.7384 15.6665 17.9205 16.14 17.9205C16.6135 17.9205 17.069 17.7384 17.412 17.412C17.7491 17.0745 17.9385 16.617 17.9385 16.14C17.9385 15.663 17.7491 15.2055 17.412 14.868L17.268 14.724C17.8026 13.8901 18.1846 12.9677 18.396 12H18.6C19.0774 12 19.5352 11.8104 19.8728 11.4728C20.2104 11.1352 20.4 10.6774 20.4 10.2C20.4 9.72261 20.2104 9.26477 19.8728 8.92721C19.5352 8.58964 19.0774 8.4 18.6 8.4ZM12.726 12.348C12.5089 12.5002 12.3302 12.7009 12.2042 12.9342C12.0782 13.1675 12.0082 13.427 12 13.692V15.6C12 15.7591 11.9368 15.9117 11.8243 16.0243C11.7117 16.1368 11.5591 16.2 11.4 16.2C11.2409 16.2 11.0883 16.1368 10.9757 16.0243C10.8632 15.9117 10.8 15.7591 10.8 15.6V13.692C10.8067 13.2412 10.9194 12.7984 11.1289 12.3992C11.3384 12 11.6389 11.6556 12.006 11.394C12.3774 11.1142 12.6786 10.7518 12.8858 10.3355C13.093 9.91926 13.2006 9.4605 13.2 8.9955C13.1994 8.53051 13.0907 8.07202 12.8824 7.65627C12.6742 7.24052 12.3721 6.8789 12 6.6V9C11.9988 9.15907 11.9365 9.3116 11.826 9.426L10.626 10.626C10.5127 10.7384 10.3596 10.8015 10.2 10.8015C10.0404 10.8015 9.88728 10.7384 9.774 10.626L8.574 9.426C8.46346 9.31161 8.40115 9.15907 8.4 9V6.6C8.02747 6.87881 7.72506 7.24062 7.51675 7.6567C7.30845 8.07278 7.2 8.53169 7.2 8.997C7.2 9.46231 7.30845 9.92122 7.51675 10.3373C7.72506 10.7534 8.02747 11.1152 8.4 11.394C8.76544 11.6569 9.06429 12.0016 9.27266 12.4006C9.48103 12.7996 9.59313 13.2419 9.6 13.692V15.6C9.6 15.7591 9.53679 15.9117 9.42426 16.0243C9.31174 16.1368 9.15913 16.2 9 16.2C8.84087 16.2 8.68826 16.1368 8.57574 16.0243C8.46321 15.9117 8.4 15.7591 8.4 15.6V13.692C8.39175 13.427 8.32184 13.1675 8.19582 12.9342C8.06979 12.7009 7.89113 12.5002 7.674 12.348C7.06727 11.8926 6.59562 11.2809 6.30943 10.5783C6.02324 9.87573 5.93325 9.10861 6.04907 8.35886C6.16489 7.60911 6.48217 6.9049 6.96703 6.32142C7.45189 5.73794 8.08612 5.29711 8.802 5.046C8.89226 5.01423 8.98874 5.00419 9.08361 5.0167C9.17848 5.02921 9.26906 5.06392 9.348 5.118C9.42539 5.17475 9.48846 5.24877 9.53221 5.33418C9.57596 5.41959 9.59917 5.51404 9.6 5.61V8.754L10.2 9.354L10.8 8.754V5.61C10.8008 5.51404 10.824 5.4196 10.8678 5.33418C10.9115 5.24877 10.9746 5.17475 11.052 5.118C11.1309 5.06373 11.2214 5.02892 11.3163 5.0164C11.4113 5.00389 11.5078 5.01403 11.598 5.046C12.3139 5.29712 12.9481 5.73795 13.4329 6.32143C13.9178 6.90491 14.2351 7.60912 14.3509 8.35886C14.4667 9.10861 14.3767 9.87573 14.0905 10.5783C13.8044 11.2809 13.3327 11.8926 12.726 12.348Z" fill="#008CAC"/>
</svg>
