<svg width="189" height="190" viewBox="0 0 189 190" fill="none" xmlns="http://www.w3.org/2000/svg">
<g filter="url(#filter0_d_0_6250)">
<path fill-rule="evenodd" clip-rule="evenodd" d="M58.417 50.2649C57.494 47.0082 57 43.571 57 40.0186C57 19.3079 73.7893 2.51855 94.5 2.51855C113.354 2.51855 128.958 16.4326 131.604 34.5524L164.851 27.4146C174.191 25.4096 183 32.5284 183 42.0804V148.518C183 156.803 176.284 163.518 168 163.518H101.852L89 179.518L76.1477 163.518H21C12.7157 163.518 6 156.803 6 148.518V73.6398C6 66.5689 10.938 60.4582 17.8514 58.9739L58.417 50.2649Z" fill="white"/>
</g>
<defs>
<filter id="filter0_d_0_6250" x="0" y="0.518555" width="189" height="189" filterUnits="userSpaceOnUse" color-interpolation-filters="sRGB">
<feFlood flood-opacity="0" result="BackgroundImageFix"/>
<feColorMatrix in="SourceAlpha" type="matrix" values="0 0 0 0 0 0 0 0 0 0 0 0 0 0 0 0 0 0 127 0" result="hardAlpha"/>
<feOffset dy="4"/>
<feGaussianBlur stdDeviation="3"/>
<feComposite in2="hardAlpha" operator="out"/>
<feColorMatrix type="matrix" values="0 0 0 0 0 0 0 0 0 0.54902 0 0 0 0 0.67451 0 0 0 0.15 0"/>
<feBlend mode="normal" in2="BackgroundImageFix" result="effect1_dropShadow_0_6250"/>
<feBlend mode="normal" in="SourceGraphic" in2="effect1_dropShadow_0_6250" result="shape"/>
</filter>
</defs>
</svg>
