<svg width="81" height="75" viewBox="0 0 81 75" fill="none" xmlns="http://www.w3.org/2000/svg">
<path d="M36.4233 6.29033H0.516602V2.20505C0.516602 0.989287 1.50583 6.10352e-05 2.7216 6.10352e-05H34.2183C35.434 6.10352e-05 36.4233 0.989287 36.4233 2.20505V6.29033ZM2.72915 61.755H33.6821C31.2732 60.7733 28.6001 60.1088 26.093 60.426C23.9031 60.6978 21.6226 58.9459 22.559 55.4572H0.516602V59.55C0.516602 60.7658 1.50583 61.755 2.7216 61.755H2.72915ZM27.7996 50.2769C29.1589 49.7257 29.476 49.9145 36.0457 50.5186C36.091 49.3708 35.7436 48.2305 35.0565 47.2942L26.818 36.1408C20.0595 43.8885 7.41098 38.9952 7.41098 28.8764C7.41098 19.3089 18.7229 14.3023 25.8136 20.6001C27.5429 20.0942 29.3703 20.5624 30.3897 21.9443L36.4308 30.1299V8.55574H0.516602V53.1993H23.6917C24.5072 52.1421 25.791 51.1076 27.7921 50.2845L27.7996 50.2769ZM15.2644 28.4913L16.903 30.364L20.5805 26.1806C20.7089 23.8321 22.3324 22.7749 23.6766 21.7857C17.8772 17.5192 9.66884 21.68 9.66884 28.8764C9.66884 37.2358 20.2785 40.8906 25.4285 34.2605L21.3508 28.7329L17.7563 32.8258C17.3033 33.3393 16.5028 33.3393 16.0573 32.8258L13.5653 29.9865C12.5761 28.8613 14.2827 27.3662 15.2719 28.4913H15.2644ZM55.868 65.6968C56.1625 65.4325 55.9058 65.6364 72.1714 53.6373C71.0915 52.1799 70.7291 51.8854 70.8574 51.236C71.5975 47.4603 72.3903 45.4592 70.8046 43.3146L60.0741 27.6229C59.5833 26.9584 58.5034 26.8904 57.6803 27.4945L56.3664 28.4686C55.5508 29.0728 55.3016 30.1299 55.8076 30.8247L60.7235 37.4925C61.6146 38.7007 59.7871 40.0449 58.9036 38.8367L51.1711 28.3629C50.567 27.5474 49.4116 27.3661 48.5961 27.9703L47.267 28.9519C46.4515 29.556 46.2853 30.7038 46.8894 31.5269L52.2811 38.8291C52.8399 39.5842 52.2811 40.6339 51.3674 40.6339C50.4537 40.6339 50.9219 40.8076 42.9854 30.0544C42.3813 29.2389 41.2259 29.0577 40.4028 29.6618C39.0134 30.6887 38.9379 30.7038 38.6887 31.0512C37.9637 32.0706 38.5603 33.0221 38.6887 33.2109L44.0803 40.5131C44.9714 41.7213 43.144 43.0654 42.2605 41.8572C39.4136 38.006 29.3099 24.3154 28.5548 23.2884C28.0413 22.5937 26.7953 22.2916 25.3303 23.3715C23.9258 24.406 23.7446 24.4966 23.3896 24.9346C22.6798 25.8106 22.6949 26.7545 23.1027 27.3133C37.6315 46.9921 37.0727 46.1313 37.5484 47.1054C38.2809 48.6156 38.4923 50.3449 38.1072 52.0062C38.0317 52.3234 37.8203 52.5726 37.5484 52.7236C37.1558 52.9426 36.9217 52.8822 36.4157 52.8293C29.1589 52.1572 29.3477 52.0817 28.6454 52.3687C27.5957 52.8066 26.4404 53.4712 25.6777 54.3245C24.4242 55.729 23.9862 58.4098 25.7985 58.1757C31.2279 57.496 37.3219 60.5317 41.7545 63.7108C42.6758 64.3753 43.7934 64.6849 44.9034 64.5943C55.3319 63.7259 52.7644 61.5058 55.8529 65.6968H55.868ZM60.3082 75.0001L80.0701 60.4109L76.823 56.016C76.2113 55.1853 75.1315 54.838 74.1498 55.1476C73.5382 55.3363 74.0668 55.0418 57.5746 67.2146C56.5401 67.9773 56.2531 69.5027 57.0687 70.5976L60.3082 74.9925V75.0001Z" fill="#008CAC"/>
</svg>
