<svg width="268" height="250" viewBox="0 0 268 250" fill="none" xmlns="http://www.w3.org/2000/svg">
<g filter="url(#filter0_d_131_521)">
<rect x="10" y="10" width="228" height="210" rx="15" fill="white"/>
</g>
<g filter="url(#filter1_d_131_521)">
<circle cx="124.5" cy="67.5" r="37.5" fill="white"/>
</g>
<circle cx="124.5" cy="67.5" r="33" fill="white" stroke="#008CAC"/>
<path d="M124.276 67.4997C129.108 67.4997 133.026 63.5822 133.026 58.7498C133.026 53.9174 129.108 50 124.276 50C119.443 50 115.526 53.9174 115.526 58.7498C115.526 63.5822 119.443 67.4997 124.276 67.4997Z" fill="#008CAC"/>
<path d="M121.992 74.6989L124.274 76.9826L126.558 74.6989L124.678 70.0002H123.87L121.992 74.6989Z" fill="#008CAC"/>
<path d="M126.775 78.0127L126.037 78.7502C125.569 79.2158 124.935 79.4772 124.275 79.4772C123.615 79.4772 122.981 79.2158 122.513 78.7502L120.225 76.4627C119.878 76.1195 119.64 75.6809 119.542 75.2025C119.444 74.7241 119.491 74.2274 119.675 73.7753L121.338 69.6004C119.918 69.2144 118.588 68.5517 117.425 67.6504C114.761 68.7791 112.419 70.5523 110.61 72.8106C108.802 75.0689 107.583 77.7414 107.063 80.5877C106.963 81.1236 106.982 81.675 107.121 82.2023C107.259 82.7297 107.513 83.2198 107.863 83.6376C108.217 84.0634 108.66 84.4061 109.161 84.6415C109.662 84.877 110.209 84.9994 110.763 85.0001H127.45C127.009 84.2407 126.776 83.3783 126.775 82.5001V78.0127Z" fill="#008CAC"/>
<path d="M132.925 68.5504C132.346 68.2107 131.745 67.9101 131.125 67.6504C129.962 68.5517 128.633 69.2144 127.213 69.6004L128.213 72.1253C128.385 71.9423 128.573 71.775 128.775 71.6253L132.525 68.8129C132.651 68.7139 132.785 68.6261 132.925 68.5504Z" fill="#008CAC"/>
<path d="M140.774 73.6242L137.024 70.8118C136.59 70.4886 136.064 70.314 135.524 70.314C134.983 70.314 134.457 70.4886 134.024 70.8118L130.274 73.6242C129.964 73.8577 129.713 74.1598 129.539 74.5068C129.366 74.8538 129.275 75.2362 129.274 75.6242V82.4991C129.274 83.1621 129.537 83.798 130.006 84.2668C130.475 84.7356 131.111 84.999 131.774 84.999H134.274V79.9991C134.274 79.6676 134.406 79.3497 134.64 79.1152C134.874 78.8808 135.192 78.7491 135.524 78.7491C135.855 78.7491 136.173 78.8808 136.408 79.1152C136.642 79.3497 136.774 79.6676 136.774 79.9991V84.999H139.274C139.937 84.999 140.573 84.7356 141.041 84.2668C141.51 83.798 141.774 83.1621 141.774 82.4991V75.6242C141.773 75.2362 141.682 74.8538 141.509 74.5068C141.335 74.1598 141.084 73.8577 140.774 73.6242Z" fill="#008CAC"/>
<path d="M36.0705 138C36.0705 133.96 38.8905 130.4 43.1505 130.4C45.8905 130.4 48.4705 131.94 49.2905 134.66L46.4105 135.38C45.7905 134 44.6505 133.14 43.1105 133.14C40.5305 133.14 39.1505 135.6 39.1505 137.96C39.1505 140.34 40.4905 142.66 43.1505 142.66C44.7105 142.66 45.9105 141.82 46.5505 140.42L49.4305 141.14C48.5305 143.9 46.0105 145.4 43.1505 145.4C38.9905 145.4 36.0705 142.18 36.0705 138ZM50.7747 139.72C50.7747 136.58 53.1347 134.14 56.3347 134.14C59.4747 134.14 61.8147 136.5 61.8147 139.7C61.8147 142.86 59.4947 145.3 56.2547 145.3C53.1147 145.3 50.7747 142.9 50.7747 139.72ZM56.2947 136.66C54.6347 136.66 53.6347 138.14 53.6347 139.72C53.6347 141.26 54.6147 142.78 56.2947 142.78C57.9547 142.78 58.9547 141.3 58.9547 139.72C58.9547 138.16 57.9947 136.66 56.2947 136.66ZM63.4152 140.72V138.28H69.0752V140.72H63.4152ZM69.5214 130.8H72.6414L75.2414 141.06L78.0614 130.8H80.8014L83.6214 141.06L86.2014 130.8H89.2414L85.0614 145H82.1814L79.4014 134.82L76.6214 145H73.7014L69.5214 130.8ZM89.2708 139.72C89.2708 136.58 91.6308 134.14 94.8308 134.14C97.9708 134.14 100.311 136.5 100.311 139.7C100.311 142.86 97.9908 145.3 94.7508 145.3C91.6108 145.3 89.2708 142.9 89.2708 139.72ZM94.7908 136.66C93.1308 136.66 92.1308 138.14 92.1308 139.72C92.1308 141.26 93.1108 142.78 94.7908 142.78C96.4508 142.78 97.4508 141.3 97.4508 139.72C97.4508 138.16 96.4908 136.66 94.7908 136.66ZM102.151 134.44H104.731L104.831 136.04C105.351 134.92 106.271 134.3 107.511 134.3C107.691 134.3 107.891 134.32 108.071 134.34C108.251 134.38 108.431 134.42 108.571 134.48L108.271 137.24C107.971 137.1 107.671 137.1 107.351 137.1C105.651 137.1 104.951 138.24 104.951 139.82V145H102.151V134.44ZM110.1 130.08H112.84V138.74L116.76 134.44H120.04L115.64 139.12L120.52 145H116.98L112.84 139.74V145H110.1V130.08ZM121.722 145V134.44H124.522V145H121.722ZM123.122 133.18C122.242 133.18 121.522 132.48 121.522 131.58C121.522 130.68 122.202 129.98 123.122 129.98C124.042 129.98 124.722 130.64 124.722 131.58C124.722 132.48 124.042 133.18 123.122 133.18ZM126.761 134.44H129.341L129.421 135.8C130.081 134.68 131.261 134.14 132.541 134.14C135.141 134.14 136.401 136.2 136.401 138.66V145H133.601V139.02C133.601 137.8 133.101 136.66 131.721 136.66C130.421 136.66 129.561 137.64 129.561 138.94V145H126.761V134.44ZM138.236 139.48C138.236 136.7 140.156 134.14 143.136 134.14C144.456 134.14 145.576 134.64 146.336 135.74L146.396 134.44H148.976V143.74C148.976 146.92 146.876 149.18 143.576 149.18C141.496 149.18 139.596 148.2 138.716 146.24L141.396 145.58C141.896 146.38 142.656 146.82 143.616 146.82C145.256 146.82 146.176 145.64 146.176 144.02V143.16C145.416 144.16 144.216 144.7 142.976 144.7C140.136 144.7 138.236 142.22 138.236 139.48ZM143.656 136.62C142.116 136.62 141.096 137.92 141.096 139.42C141.096 140.88 142.116 142.22 143.656 142.22C145.196 142.22 146.216 140.92 146.216 139.42C146.216 137.94 145.236 136.62 143.656 136.62ZM154.753 141.58L157.533 140.98C157.913 142.1 158.813 142.72 159.993 142.72C161.073 142.72 162.153 142.16 162.153 140.94C162.153 139.78 160.973 139.42 160.033 139.2L159.393 139.06C157.173 138.58 155.113 137.44 155.113 134.9C155.113 132.2 157.453 130.5 160.053 130.5C162.333 130.5 164.413 131.8 164.913 134.14L162.173 134.74C162.013 134.2 161.733 133.8 161.353 133.5C160.953 133.22 160.493 133.08 159.973 133.08C159.033 133.08 158.073 133.64 158.073 134.7C158.073 135.84 159.313 136.18 160.213 136.38L160.853 136.52C163.133 137.02 165.133 138.08 165.133 140.7C165.133 143.58 162.733 145.3 159.953 145.3C157.613 145.3 155.313 143.98 154.753 141.58ZM166.858 134.44H169.438L169.518 135.98C170.258 134.78 171.538 134.14 172.938 134.14C175.938 134.14 177.798 136.8 177.798 139.66C177.798 142.52 175.878 145.3 172.778 145.3C171.538 145.3 170.418 144.8 169.658 143.82V148.88H166.858V134.44ZM172.278 136.66C170.618 136.66 169.618 138.14 169.618 139.72C169.618 141.26 170.598 142.78 172.278 142.78C173.938 142.78 174.938 141.3 174.938 139.72C174.938 138.16 173.978 136.66 172.278 136.66ZM182.892 145.3C180.972 145.3 179.132 144.1 179.132 142C179.132 139.64 181.372 138.62 183.472 138.62C184.352 138.62 185.052 138.78 185.872 139.08V138.46C185.872 137.28 185.192 136.44 183.972 136.44C183.112 136.44 182.312 136.86 182.012 137.7L179.512 137.2C179.972 135.18 182.072 134.14 184.012 134.14C186.652 134.14 188.592 135.84 188.592 138.6V145H186.092L186.012 143.76C185.372 144.82 184.092 145.3 182.892 145.3ZM181.892 141.86C181.892 142.76 182.792 143.14 183.572 143.14C184.792 143.14 185.872 142.3 185.872 141V140.9C185.572 140.78 185.272 140.68 184.932 140.6C184.592 140.54 184.272 140.5 183.932 140.5C183.072 140.5 181.892 140.8 181.892 141.86ZM190.423 139.8C190.423 136.76 192.603 134.14 195.803 134.14C198.003 134.14 199.903 135.4 200.463 137.6L197.803 138.12C197.423 137.24 196.723 136.66 195.743 136.66C194.083 136.66 193.283 138.28 193.283 139.76C193.283 141.22 194.083 142.78 195.743 142.78C196.723 142.78 197.543 142.24 197.903 141.32L200.563 141.84C199.983 144.06 197.963 145.3 195.723 145.3C192.643 145.3 190.423 142.9 190.423 139.8ZM201.732 139.7C201.732 136.7 203.832 134.14 206.992 134.14C210.212 134.14 212.152 136.52 212.152 139.72V140.42H204.572C204.792 141.82 205.632 142.94 207.152 142.94C208.152 142.94 208.912 142.46 209.432 141.62L211.932 142.42C211.172 144.32 209.112 145.3 207.132 145.3C203.952 145.3 201.732 142.9 201.732 139.7ZM206.992 136.3C205.652 136.3 204.852 137.3 204.612 138.54H209.272C209.092 137.3 208.332 136.3 206.992 136.3ZM53.2435 166.3C53.2435 164.58 54.2635 163.22 55.7435 162.42C54.9635 161.54 54.3035 160.5 54.3035 159.28C54.3035 157 56.0835 155.5 58.3435 155.5C60.4035 155.5 62.2835 156.8 62.2835 159.04C62.2835 160.54 61.4035 161.8 59.6435 162.82L62.2435 165.48C62.7835 164.46 63.0235 163.34 63.1035 162.2L65.5835 162.4C65.4035 164.1 64.9235 165.8 63.9835 167.24L66.7035 170H63.1435L62.2635 169.1C61.0435 170 59.7235 170.4 58.2235 170.4C55.7835 170.4 53.2435 169.06 53.2435 166.3ZM56.0635 166.04C56.0635 167.38 57.3035 168.02 58.5235 168.02C59.2635 168.02 59.9435 167.8 60.5835 167.38L57.2835 164C56.5235 164.44 56.0635 165.16 56.0635 166.04ZM57.1235 158.5C56.9835 158.72 56.9235 158.96 56.9235 159.22C56.9235 160 57.5635 160.7 58.0835 161.22C58.8635 160.82 59.7235 160.1 59.7235 159.14C59.7235 158.36 59.1635 157.82 58.3835 157.82C57.8835 157.82 57.3635 158.04 57.1235 158.5ZM72.1848 155.8H81.0848V158.34H75.0648V161.44H80.4448V163.98H75.0648V167.46H81.2848V170H72.1848V155.8ZM82.771 167.36L85.291 166.82C85.591 167.7 86.351 168.16 87.251 168.16C87.951 168.16 88.811 167.88 88.811 167.04C88.811 166.2 87.791 165.96 87.131 165.86L86.571 165.76C84.811 165.46 83.071 164.58 83.071 162.56C83.071 160.3 85.051 159.14 87.151 159.14C89.031 159.14 90.871 160.04 91.331 162.02L88.831 162.54C88.551 161.76 87.991 161.26 87.131 161.26C86.491 161.26 85.711 161.58 85.711 162.32C85.711 163.08 86.871 163.32 87.431 163.42L87.991 163.52C89.771 163.84 91.491 164.72 91.491 166.76C91.491 169.1 89.371 170.3 87.211 170.3C85.291 170.3 83.311 169.36 82.771 167.36ZM92.2995 159.44H94.0995V155.84H96.8995V159.44H99.7795V161.7H96.8995V166.28C96.8995 167.16 97.2195 167.86 98.1995 167.86C98.7195 167.86 99.1995 167.7 99.6795 167.5L100.179 169.6C99.4195 170.08 98.5195 170.3 97.6395 170.3C95.3995 170.3 94.0995 168.9 94.0995 166.62V161.7H92.2995V159.44ZM105.011 170.3C103.091 170.3 101.251 169.1 101.251 167C101.251 164.64 103.491 163.62 105.591 163.62C106.471 163.62 107.171 163.78 107.991 164.08V163.46C107.991 162.28 107.311 161.44 106.091 161.44C105.231 161.44 104.431 161.86 104.131 162.7L101.631 162.2C102.091 160.18 104.191 159.14 106.131 159.14C108.771 159.14 110.711 160.84 110.711 163.6V170H108.211L108.131 168.76C107.491 169.82 106.211 170.3 105.011 170.3ZM104.011 166.86C104.011 167.76 104.911 168.14 105.691 168.14C106.911 168.14 107.991 167.3 107.991 166V165.9C107.691 165.78 107.391 165.68 107.051 165.6C106.711 165.54 106.391 165.5 106.051 165.5C105.191 165.5 104.011 165.8 104.011 166.86ZM111.831 159.44H113.631V155.84H116.431V159.44H119.311V161.7H116.431V166.28C116.431 167.16 116.751 167.86 117.731 167.86C118.251 167.86 118.731 167.7 119.211 167.5L119.711 169.6C118.951 170.08 118.051 170.3 117.171 170.3C114.931 170.3 113.631 168.9 113.631 166.62V161.7H111.831V159.44ZM120.765 164.7C120.765 161.7 122.865 159.14 126.025 159.14C129.245 159.14 131.185 161.52 131.185 164.72V165.42H123.605C123.825 166.82 124.665 167.94 126.185 167.94C127.185 167.94 127.945 167.46 128.465 166.62L130.965 167.42C130.205 169.32 128.145 170.3 126.165 170.3C122.985 170.3 120.765 167.9 120.765 164.7ZM126.025 161.3C124.685 161.3 123.885 162.3 123.645 163.54H128.305C128.125 162.3 127.365 161.3 126.025 161.3ZM136.302 170L141.942 155.8H145.102L150.762 170H147.702L146.542 166.88H140.402L139.242 170H136.302ZM143.462 158.7L141.342 164.36H145.602L143.462 158.7ZM151.429 164.48C151.429 161.7 153.349 159.14 156.329 159.14C157.649 159.14 158.769 159.64 159.529 160.74L159.589 159.44H162.169V168.74C162.169 171.92 160.069 174.18 156.769 174.18C154.689 174.18 152.789 173.2 151.909 171.24L154.589 170.58C155.089 171.38 155.849 171.82 156.809 171.82C158.449 171.82 159.369 170.64 159.369 169.02V168.16C158.609 169.16 157.409 169.7 156.169 169.7C153.329 169.7 151.429 167.22 151.429 164.48ZM156.849 161.62C155.309 161.62 154.289 162.92 154.289 164.42C154.289 165.88 155.309 167.22 156.849 167.22C158.389 167.22 159.409 165.92 159.409 164.42C159.409 162.94 158.429 161.62 156.849 161.62ZM164.007 164.7C164.007 161.7 166.107 159.14 169.267 159.14C172.487 159.14 174.427 161.52 174.427 164.72V165.42H166.847C167.067 166.82 167.907 167.94 169.427 167.94C170.427 167.94 171.187 167.46 171.707 166.62L174.207 167.42C173.447 169.32 171.387 170.3 169.407 170.3C166.227 170.3 164.007 167.9 164.007 164.7ZM169.267 161.3C167.927 161.3 167.127 162.3 166.887 163.54H171.547C171.367 162.3 170.607 161.3 169.267 161.3ZM176.165 159.44H178.745L178.825 160.8C179.485 159.68 180.665 159.14 181.945 159.14C184.545 159.14 185.805 161.2 185.805 163.66V170H183.005V164.02C183.005 162.8 182.505 161.66 181.125 161.66C179.825 161.66 178.965 162.64 178.965 163.94V170H176.165V159.44ZM186.987 159.44H188.787V155.84H191.587V159.44H194.467V161.7H191.587V166.28C191.587 167.16 191.907 167.86 192.887 167.86C193.407 167.86 193.887 167.7 194.367 167.5L194.867 169.6C194.107 170.08 193.207 170.3 192.327 170.3C190.087 170.3 188.787 168.9 188.787 166.62V161.7H186.987V159.44Z" fill="black"/>
<defs>
<filter id="filter0_d_131_521" x="0" y="0" width="268" height="250" filterUnits="userSpaceOnUse" color-interpolation-filters="sRGB">
<feFlood flood-opacity="0" result="BackgroundImageFix"/>
<feColorMatrix in="SourceAlpha" type="matrix" values="0 0 0 0 0 0 0 0 0 0 0 0 0 0 0 0 0 0 127 0" result="hardAlpha"/>
<feOffset dx="10" dy="10"/>
<feGaussianBlur stdDeviation="10"/>
<feComposite in2="hardAlpha" operator="out"/>
<feColorMatrix type="matrix" values="0 0 0 0 0 0 0 0 0 0 0 0 0 0 0 0 0 0 0.1 0"/>
<feBlend mode="normal" in2="BackgroundImageFix" result="effect1_dropShadow_131_521"/>
<feBlend mode="normal" in="SourceGraphic" in2="effect1_dropShadow_131_521" result="shape"/>
</filter>
<filter id="filter1_d_131_521" x="81" y="28" width="87" height="87" filterUnits="userSpaceOnUse" color-interpolation-filters="sRGB">
<feFlood flood-opacity="0" result="BackgroundImageFix"/>
<feColorMatrix in="SourceAlpha" type="matrix" values="0 0 0 0 0 0 0 0 0 0 0 0 0 0 0 0 0 0 127 0" result="hardAlpha"/>
<feOffset dy="4"/>
<feGaussianBlur stdDeviation="3"/>
<feComposite in2="hardAlpha" operator="out"/>
<feColorMatrix type="matrix" values="0 0 0 0 0 0 0 0 0 0.54902 0 0 0 0 0.67451 0 0 0 0.3 0"/>
<feBlend mode="normal" in2="BackgroundImageFix" result="effect1_dropShadow_131_521"/>
<feBlend mode="normal" in="SourceGraphic" in2="effect1_dropShadow_131_521" result="shape"/>
</filter>
</defs>
</svg>
