<svg width="87" height="87" viewBox="0 0 87 87" fill="none" xmlns="http://www.w3.org/2000/svg">
<g filter="url(#filter0_d_131_523)">
<circle cx="43.5" cy="39.5" r="37.5" fill="white"/>
</g>
<circle cx="43.5" cy="39.5" r="33" fill="white" stroke="#008CAC"/>
<path d="M43.2757 39.4997C48.1081 39.4997 52.0256 35.5822 52.0256 30.7498C52.0256 25.9174 48.1081 22 43.2757 22C38.4433 22 34.5259 25.9174 34.5259 30.7498C34.5259 35.5822 38.4433 39.4997 43.2757 39.4997Z" fill="#008CAC"/>
<path d="M40.9917 46.6989L43.2742 48.9826L45.5579 46.6989L43.6779 42.0002H42.8704L40.9917 46.6989Z" fill="#008CAC"/>
<path d="M45.775 50.0127L45.0375 50.7502C44.5691 51.2158 43.9355 51.4772 43.275 51.4772C42.6146 51.4772 41.981 51.2158 41.5126 50.7502L39.2251 48.4627C38.8778 48.1195 38.6401 47.6809 38.5422 47.2025C38.4443 46.7241 38.4906 46.2274 38.6751 45.7753L40.3376 41.6004C38.9177 41.2144 37.5881 40.5517 36.4251 39.6504C33.761 40.7791 31.4193 42.5523 29.6105 44.8106C27.8017 47.0689 26.5826 49.7414 26.0628 52.5877C25.9627 53.1236 25.9825 53.675 26.1208 54.2023C26.2591 54.7297 26.5125 55.2198 26.8628 55.6376C27.2168 56.0634 27.66 56.4061 28.1612 56.6415C28.6623 56.877 29.2091 56.9994 29.7628 57.0001H46.45C46.0087 56.2407 45.7759 55.3783 45.775 54.5001V50.0127Z" fill="#008CAC"/>
<path d="M51.9253 40.5504C51.346 40.2107 50.7446 39.9101 50.1253 39.6504C48.9623 40.5517 47.6327 41.2144 46.2129 41.6004L47.2129 44.1253C47.3852 43.9423 47.5734 43.775 47.7754 43.6253L51.5253 40.8129C51.6507 40.7139 51.7846 40.6261 51.9253 40.5504Z" fill="#008CAC"/>
<path d="M59.7737 45.6242L56.0238 42.8118C55.5905 42.4886 55.0644 42.314 54.5238 42.314C53.9832 42.314 53.4571 42.4886 53.0238 42.8118L49.2739 45.6242C48.9641 45.8577 48.7125 46.1598 48.539 46.5068C48.3655 46.8538 48.2748 47.2362 48.2739 47.6242V54.4991C48.2739 55.1621 48.5373 55.798 49.0061 56.2668C49.475 56.7356 50.1109 56.999 50.7739 56.999H53.2738V51.9991C53.2738 51.6676 53.4055 51.3497 53.6399 51.1152C53.8744 50.8808 54.1923 50.7491 54.5238 50.7491C54.8553 50.7491 55.1733 50.8808 55.4077 51.1152C55.6421 51.3497 55.7738 51.6676 55.7738 51.9991V56.999H58.2737C58.9368 56.999 59.5726 56.7356 60.0415 56.2668C60.5103 55.798 60.7737 55.1621 60.7737 54.4991V47.6242C60.7728 47.2362 60.6821 46.8538 60.5086 46.5068C60.3351 46.1598 60.0836 45.8577 59.7737 45.6242Z" fill="#008CAC"/>
<defs>
<filter id="filter0_d_131_523" x="0" y="0" width="87" height="87" filterUnits="userSpaceOnUse" color-interpolation-filters="sRGB">
<feFlood flood-opacity="0" result="BackgroundImageFix"/>
<feColorMatrix in="SourceAlpha" type="matrix" values="0 0 0 0 0 0 0 0 0 0 0 0 0 0 0 0 0 0 127 0" result="hardAlpha"/>
<feOffset dy="4"/>
<feGaussianBlur stdDeviation="3"/>
<feComposite in2="hardAlpha" operator="out"/>
<feColorMatrix type="matrix" values="0 0 0 0 0 0 0 0 0 0.54902 0 0 0 0 0.67451 0 0 0 0.3 0"/>
<feBlend mode="normal" in2="BackgroundImageFix" result="effect1_dropShadow_131_523"/>
<feBlend mode="normal" in="SourceGraphic" in2="effect1_dropShadow_131_523" result="shape"/>
</filter>
</defs>
</svg>
