<svg width="25" height="35" viewBox="0 0 25 35" fill="none" xmlns="http://www.w3.org/2000/svg">
<path d="M20.3497 24.925L17.7184 22.3875C17.6135 22.3069 17.5371 22.195 17.5 22.0681C17.4629 21.9411 17.4672 21.8056 17.5121 21.6813C17.7523 21.0119 17.7945 20.2875 17.6338 19.5948C17.4731 18.902 17.1162 18.2703 16.6059 17.775C15.9804 17.1671 15.1577 16.8035 14.2871 16.75L15.5121 17.925C15.9443 18.343 16.193 18.9154 16.2035 19.5165C16.2141 20.1176 15.9856 20.6984 15.5684 21.1313L14.8059 21.9188C14.3875 22.3502 13.8152 22.5983 13.2143 22.6088C12.6135 22.6193 12.0329 22.3914 11.5996 21.975L10.3809 20.7937C10.438 21.362 10.6265 21.9093 10.9315 22.3922C11.2365 22.8751 11.6496 23.2805 12.1382 23.5763C12.6268 23.8721 13.1775 24.0503 13.7468 24.0967C14.316 24.1431 14.8883 24.0565 15.4184 23.8437C15.5469 23.7923 15.6888 23.7846 15.8221 23.8219C15.9554 23.8592 16.0727 23.9394 16.1559 24.05C17.5531 25.3988 21.9133 29.6092 23.2434 30.8938L24.831 29.25L20.3497 24.925Z" fill="#008CAC"/>
<path d="M20.1688 12.5251H21.4188V0.625003C21.4183 0.459394 21.3523 0.300709 21.2352 0.183605C21.1181 0.0665018 20.9594 0.000494604 20.7938 0H0.625003C0.459394 0.000494604 0.300709 0.0665018 0.183605 0.183605C0.0665015 0.300709 0.000494604 0.459394 0 0.625003V12.5251H20.1688ZM3.79377 9.37504C3.79133 9.5392 3.7244 9.6958 3.60746 9.81102C3.49051 9.92624 3.33292 9.99083 3.16875 9.99083C3.00457 9.99082 2.84699 9.92623 2.73005 9.811C2.61311 9.69577 2.54619 9.53916 2.54376 9.37501V4.37502C2.5462 4.21086 2.61311 4.05426 2.73006 3.93903C2.84701 3.82381 3.00459 3.75922 3.16876 3.75922C3.33294 3.75922 3.49052 3.82381 3.60747 3.93903C3.72441 4.05426 3.79133 4.21086 3.79377 4.37502V9.37504Z" fill="#008CAC"/>
<path d="M15.4875 25.1437C14.6567 25.3966 13.7739 25.4258 12.9282 25.2283C12.0824 25.0308 11.3039 24.6136 10.671 24.0188C10.0382 23.424 9.57357 22.6727 9.32405 21.8409C9.07454 21.009 9.049 20.1261 9.25 19.2812C9.27665 19.1745 9.33074 19.0766 9.4069 18.9973C9.48306 18.918 9.57865 18.86 9.68416 18.829C9.78967 18.7981 9.90145 18.7953 10.0084 18.8208C10.1153 18.8464 10.2137 18.8996 10.2938 18.9749L12.4688 21.0749C12.663 21.2617 12.9233 21.3639 13.1927 21.3592C13.4621 21.3545 13.7187 21.2433 13.9063 21.0499L14.6688 20.2624C14.8547 20.0678 14.9563 19.8077 14.9516 19.5385C14.9469 19.2694 14.8363 19.013 14.6438 18.8249L12.4688 16.7249C12.3886 16.6484 12.3301 16.552 12.2993 16.4455C12.2686 16.3389 12.2667 16.2262 12.2938 16.1187C12.3216 16.0122 12.3765 15.9148 12.4531 15.8359C12.5298 15.757 12.6257 15.6994 12.7313 15.6687C16.302 14.6087 19.8525 18.1343 18.8125 21.7C19.4559 22.3303 20.7748 23.5929 21.4188 24.2187V13.7749C19.8466 13.7745 1.5733 13.7752 3.74568e-06 13.7749V32.3062C-0.000281171 32.3884 0.0156908 32.4698 0.0469992 32.5458C0.0783076 32.6217 0.124334 32.6907 0.182428 32.7488C0.240521 32.8069 0.309534 32.8529 0.385492 32.8842C0.461449 32.9156 0.54285 32.9315 0.625006 32.9312H2.16016V34.375C2.16016 34.5408 2.22601 34.6997 2.34322 34.8169C2.46043 34.9342 2.61941 35 2.78517 35C2.95093 35 3.1099 34.9342 3.22711 34.8169C3.34432 34.6997 3.41017 34.5408 3.41017 34.375V32.9312H18.0052V34.375C18.0052 34.5408 18.0711 34.6997 18.1883 34.8169C18.3055 34.9342 18.4645 35 18.6302 35C18.796 35 18.955 34.9342 19.0722 34.8169C19.1894 34.6997 19.2552 34.5408 19.2552 34.375V32.9312H20.7938C20.876 32.9315 20.9574 32.9156 21.0333 32.8842C21.1093 32.8529 21.1783 32.8069 21.2364 32.7488C21.2945 32.6907 21.3405 32.6217 21.3718 32.5458C21.4031 32.4698 21.4191 32.3884 21.4188 32.3062V30.8687C20.6269 30.1061 16.3746 25.999 15.4875 25.1437ZM2.54372 16.2499C2.54616 16.0858 2.61308 15.9292 2.73003 15.8139C2.84698 15.6987 3.00457 15.6341 3.16874 15.6341C3.33291 15.6341 3.49049 15.6987 3.60744 15.814C3.72438 15.9292 3.7913 16.0858 3.79373 16.25V21.2499C3.79129 21.4141 3.72436 21.5707 3.60742 21.6859C3.49047 21.8011 3.33288 21.8657 3.16871 21.8657C3.00453 21.8657 2.84695 21.8011 2.73001 21.6859C2.61307 21.5707 2.54615 21.4141 2.54372 21.2499V16.2499Z" fill="#008CAC"/>
</svg>
