<svg width="87" height="87" viewBox="0 0 87 87" fill="none" xmlns="http://www.w3.org/2000/svg">
<g filter="url(#filter0_d_131_462)">
<circle cx="43.5" cy="39.5" r="37.5" fill="white"/>
</g>
<circle cx="44" cy="40" r="33" fill="white" stroke="#008CAC"/>
<path d="M28 50.5333H35.1469V22H28V50.5333ZM31.7607 31.1399C31.7671 30.7766 32.0628 30.4858 32.4277 30.4858C32.7909 30.4858 33.0866 30.7767 33.093 31.1399V34.6466C33.093 35.0146 32.7957 35.3136 32.4277 35.3136C32.0596 35.3136 31.7607 35.0146 31.7607 34.6466V31.1399Z" fill="#008CAC"/>
<path d="M28 56.6658H35.1469V51.8669H28V56.6658ZM30.393 53.1719H32.426L32.4277 53.1735C32.7909 53.1783 33.085 53.4757 33.085 53.8405C33.085 54.2037 32.7909 54.501 32.4277 54.5058H30.393C30.0298 54.501 29.7373 54.2037 29.7373 53.8405C29.7373 53.4757 30.0298 53.1783 30.393 53.1735L30.393 53.1719Z" fill="#008CAC"/>
<path d="M38.7646 39.1738H58.3975V41.0542H38.7646V39.1738Z" fill="#008CAC"/>
<path d="M41.0747 47.3064H56.0951V42.387H41.0747V47.3064ZM46.5743 44.2593H51.0806V44.2609C51.4454 44.2657 51.7379 44.563 51.7379 44.9263C51.7379 45.2911 51.4454 45.5884 51.0806 45.5932H46.5743C46.211 45.5868 45.9202 45.2911 45.9202 44.9263C45.9202 44.563 46.2111 44.2673 46.5743 44.2609V44.2593Z" fill="#008CAC"/>
<path d="M41.0747 53.8872H56.0951V48.6399H41.0747V53.8872ZM46.5743 50.681H51.0806V50.6794C51.4454 50.6858 51.7379 50.9815 51.7379 51.3463C51.7379 51.7112 51.4454 52.0085 51.0806 52.0133H46.5743C46.211 52.0069 45.9202 51.7096 45.9202 51.3463C45.9202 50.9831 46.2111 50.6858 46.5743 50.6794V50.681Z" fill="#008CAC"/>
<path d="M54.1679 55.2197H52.834V57.3331C52.834 57.5099 52.9031 57.6802 53.0284 57.8056C53.1538 57.9309 53.3242 58.0001 53.5009 58.0001H55.2945C55.4713 58.0001 55.6416 57.9309 55.7654 57.8056C55.8907 57.6802 55.9615 57.5099 55.9615 57.3331V55.2197H54.1679Z" fill="#008CAC"/>
<path d="M42.6458 55.2194H41.3119C40.7382 55.1937 39.7675 55.4187 39.7385 54.5524V42.3865H38.0992C37.7312 42.3849 37.4339 42.0876 37.4323 41.7196V38.5069C37.4339 38.1389 37.7312 37.8415 38.0992 37.8399H43.6264L43.6247 22H36.4795V56.666H41.3121V57.333C41.3137 57.701 41.611 57.9983 41.9791 57.9999H44.2917C44.4685 57.9999 44.6389 57.9308 44.7642 57.8055C44.8896 57.6801 44.9587 57.5098 44.9587 57.333V55.2196C44.3882 55.2084 43.2067 55.229 42.6458 55.2194ZM38.538 31.1398C38.546 30.7766 38.8417 30.4857 39.205 30.4857C39.5682 30.4857 39.8655 30.7766 39.8719 31.1398V34.6466C39.8671 35.0114 39.5698 35.3039 39.205 35.3039C38.8417 35.3039 38.5444 35.0114 38.538 34.6466V31.1398Z" fill="#008CAC"/>
<defs>
<filter id="filter0_d_131_462" x="0" y="0" width="87" height="87" filterUnits="userSpaceOnUse" color-interpolation-filters="sRGB">
<feFlood flood-opacity="0" result="BackgroundImageFix"/>
<feColorMatrix in="SourceAlpha" type="matrix" values="0 0 0 0 0 0 0 0 0 0 0 0 0 0 0 0 0 0 127 0" result="hardAlpha"/>
<feOffset dy="4"/>
<feGaussianBlur stdDeviation="3"/>
<feComposite in2="hardAlpha" operator="out"/>
<feColorMatrix type="matrix" values="0 0 0 0 0 0 0 0 0 0.54902 0 0 0 0 0.67451 0 0 0 0.3 0"/>
<feBlend mode="normal" in2="BackgroundImageFix" result="effect1_dropShadow_131_462"/>
<feBlend mode="normal" in="SourceGraphic" in2="effect1_dropShadow_131_462" result="shape"/>
</filter>
</defs>
</svg>
