<svg width="87" height="87" viewBox="0 0 87 87" fill="none" xmlns="http://www.w3.org/2000/svg">
<g filter="url(#filter0_d_131_546)">
<circle cx="43.5" cy="39.5" r="37.5" fill="white"/>
</g>
<circle cx="43.502" cy="39.5" r="33" fill="white" stroke="#008CAC"/>
<path d="M42.0376 23.3721L26.5572 31.628C26.0868 31.8787 25.6934 32.2525 25.4191 32.7096C25.1449 33.1666 25 33.6896 25 34.2226C24.9998 34.7306 25.1312 35.23 25.3814 35.6721C25.6316 36.1142 25.9921 36.484 26.4277 36.7454C26.8633 37.0067 27.3592 37.1508 27.8671 37.1635C28.3749 37.1762 28.8774 37.0572 29.3255 36.8179L43.141 29.4487L56.9578 36.8179C57.4058 37.0568 57.9081 37.1756 58.4157 37.1628C58.9233 37.1499 59.4189 37.0059 59.8543 36.7446C60.2897 36.4834 60.65 36.1138 60.9002 35.672C61.1504 35.2302 61.2819 34.7311 61.282 34.2233C61.2821 33.6903 61.1374 33.1672 60.8632 32.71C60.589 32.2529 60.1958 31.8789 59.7255 31.628L44.2451 23.3721C43.9053 23.1911 43.5263 23.0964 43.1413 23.0964C42.7564 23.0964 42.3773 23.1911 42.0376 23.3721Z" fill="#008CAC"/>
<path d="M38.6885 44.8115V57.0004H47.8606V44.8115H38.6885ZM41.1438 51.6422C40.9213 51.6423 40.7039 51.5765 40.5189 51.453C40.3339 51.3295 40.1897 51.1539 40.1045 50.9484C40.0193 50.743 39.997 50.5168 40.0404 50.2987C40.0837 50.0805 40.1908 49.8801 40.3481 49.7229C40.5054 49.5656 40.7058 49.4585 40.9239 49.4151C41.1421 49.3718 41.3682 49.3941 41.5737 49.4793C41.7791 49.5644 41.9547 49.7087 42.0782 49.8937C42.2017 50.0786 42.2675 50.2961 42.2674 50.5185C42.2674 50.8165 42.149 51.1023 41.9383 51.3131C41.7276 51.5238 41.4418 51.6422 41.1438 51.6422Z" fill="#008CAC"/>
<path d="M45.079 38.5461V39.7242C45.0798 40.3267 45.3195 40.9044 45.7456 41.3303C46.1717 41.7563 46.7494 41.9959 47.3519 41.9964H47.671C48.2734 41.9957 48.8509 41.7561 49.2769 41.3301C49.7028 40.9041 49.9424 40.3266 49.9432 39.7242C49.9435 39.4788 50.0412 39.2436 50.2147 39.07C50.3882 38.8965 50.6235 38.7989 50.8689 38.7985H51.1691C51.4145 38.7989 51.6498 38.8965 51.8233 39.07C51.9968 39.2436 52.0945 39.4788 52.0948 39.7242V44.2349H49.2066V44.1366C49.2066 43.958 49.1357 43.7868 49.0095 43.6606C48.8832 43.5343 48.712 43.4634 48.5334 43.4634H42.79V38.5461C42.7904 38.3007 42.888 38.0654 43.0616 37.8919C43.2351 37.7184 43.4703 37.6207 43.7157 37.6204H44.1547C44.3999 37.6209 44.6349 37.7186 44.8082 37.8922C44.9815 38.0657 45.0789 38.3008 45.079 38.5461Z" fill="#008CAC"/>
<path d="M57.0474 52.3152H49.2056V57.0002H57.0474V52.3152Z" fill="#008CAC"/>
<path d="M37.3423 56.9996H29.2339V38.3045C29.4838 38.2267 29.7262 38.1266 29.9583 38.0056L43.1416 30.9744L56.3228 38.0056C56.5549 38.1266 56.7973 38.2267 57.0472 38.3045V38.6297C56.8687 38.6297 56.6974 38.7006 56.5712 38.8269C56.4449 38.9532 56.374 39.1244 56.374 39.303V44.6404C56.3658 45.0241 56.2076 45.3893 55.9333 45.6578C55.659 45.9262 55.2905 46.0766 54.9067 46.0766C54.5229 46.0766 54.1544 45.9262 53.8801 45.6578C53.6058 45.3893 53.4476 45.0241 53.4394 44.6404V39.7257C53.4388 39.1233 53.1993 38.5457 52.7733 38.1197C52.3473 37.6937 51.7697 37.4541 51.1672 37.4536H50.8696C50.2672 37.4541 49.6896 37.6937 49.2636 38.1197C48.8376 38.5457 48.598 39.1233 48.5975 39.7257C48.5966 39.9708 48.4987 40.2055 48.3252 40.3786C48.1518 40.5517 47.9168 40.6491 47.6718 40.6494H47.3527C47.1072 40.6491 46.8719 40.5514 46.6982 40.3779C46.5246 40.2044 46.4268 39.9692 46.4263 39.7237V38.5456C46.4259 37.9433 46.1866 37.3658 45.7609 36.9398C45.3351 36.5138 44.7577 36.2741 44.1555 36.2734H43.7165C43.1141 36.2739 42.5364 36.5135 42.1104 36.9395C41.6844 37.3655 41.4449 37.9431 41.4443 38.5456V43.4642H38.0156C37.837 43.4642 37.6658 43.5351 37.5395 43.6614C37.4133 43.7877 37.3423 43.9589 37.3423 44.1375V56.9996Z" fill="#008CAC"/>
<path d="M57.0474 46.4459V50.9686H49.2056V45.5828H52.2681C52.4304 46.0496 52.714 46.4649 53.0896 46.7861C53.4653 47.1073 53.9196 47.3228 54.406 47.4107C54.8924 47.4985 55.3934 47.4554 55.8576 47.2859C56.3219 47.1164 56.7321 46.8264 57.0474 46.4459Z" fill="#008CAC"/>
<path d="M55.9488 28.0887V22H48.7041V24.225L55.9488 28.0887Z" fill="#008CAC"/>
<defs>
<filter id="filter0_d_131_546" x="0" y="0" width="87" height="87" filterUnits="userSpaceOnUse" color-interpolation-filters="sRGB">
<feFlood flood-opacity="0" result="BackgroundImageFix"/>
<feColorMatrix in="SourceAlpha" type="matrix" values="0 0 0 0 0 0 0 0 0 0 0 0 0 0 0 0 0 0 127 0" result="hardAlpha"/>
<feOffset dy="4"/>
<feGaussianBlur stdDeviation="3"/>
<feComposite in2="hardAlpha" operator="out"/>
<feColorMatrix type="matrix" values="0 0 0 0 0 0 0 0 0 0.54902 0 0 0 0 0.67451 0 0 0 0.3 0"/>
<feBlend mode="normal" in2="BackgroundImageFix" result="effect1_dropShadow_131_546"/>
<feBlend mode="normal" in="SourceGraphic" in2="effect1_dropShadow_131_546" result="shape"/>
</filter>
</defs>
</svg>
