<svg width="87" height="87" viewBox="0 0 87 87" fill="none" xmlns="http://www.w3.org/2000/svg">
<g filter="url(#filter0_d_1928_2718)">
<circle cx="43.5" cy="39.5" r="37.5" fill="white"/>
</g>
<circle cx="43.502" cy="39.5" r="33" fill="white" stroke="#008CAC"/>
<path fill-rule="evenodd" clip-rule="evenodd" d="M56.7762 43.0385H43.3777L42.3029 52.0644C42.2446 52.556 42.3992 53.0487 42.7275 53.4185C43.0563 53.7883 43.5271 54 44.0215 54H44.8846V51.1154C44.8846 50.7969 45.1431 50.5385 45.4615 50.5385C45.78 50.5385 46.0385 50.7969 46.0385 51.1154V54H49.5V51.1154C49.5 50.7969 49.7585 50.5385 50.0769 50.5385C50.3954 50.5385 50.6538 50.7969 50.6538 51.1154V54H54.1154V51.1154C54.1154 50.7969 54.3738 50.5385 54.6923 50.5385C55.0108 50.5385 55.2692 50.7969 55.2692 51.1154V54H56.1323C56.6267 54 57.0975 53.7883 57.4263 53.4185C57.7546 53.0487 57.9092 52.556 57.851 52.0644L56.7762 43.0385ZM27.6392 32.6538L29.6688 52.4458C29.7594 53.3285 30.5031 54 31.391 54H41.7138C41.2708 53.4092 41.0694 52.6679 41.1571 51.9283L42.2198 43.0015C41.4352 42.8371 40.8462 42.1413 40.8462 41.3077V40.1538C40.8462 39.1979 41.621 38.4231 42.5769 38.4231H47.7692V32.6538H27.6392ZM29.8869 39.0525L30.4638 45.3987C30.4927 45.7154 30.7737 45.9496 31.091 45.9208C31.4077 45.8919 31.6419 45.611 31.6131 45.2937L31.0362 38.9475C31.0073 38.6308 30.7263 38.3965 30.409 38.4254C30.0923 38.4542 29.8581 38.7352 29.8869 39.0525ZM57.5769 39.5769H42.5769C42.2585 39.5769 42 39.8354 42 40.1538V41.3077C42 41.6262 42.2585 41.8846 42.5769 41.8846H57.5769C57.8954 41.8846 58.1538 41.6262 58.1538 41.3077V40.1538C58.1538 39.8354 57.8954 39.5769 57.5769 39.5769ZM51.2308 36.6923H48.9231V38.4231H51.2308V36.6923ZM48.9231 25.1527V35.5385H51.2308V25.1527C51.2308 24.5163 50.7144 24 50.0781 24H50.0758C49.4394 24 48.9231 24.5163 48.9231 25.1527ZM47.7692 30.3462H27.5769C27.424 30.3462 27.2769 30.4067 27.169 30.5152C27.0606 30.6231 27 30.7702 27 30.9231C27 31.076 27.0606 31.2231 27.169 31.331C27.2769 31.4394 27.424 31.5 27.5769 31.5H47.7692V30.3462ZM47.6833 29.1923C47.1127 26.2085 44.494 24 41.3977 24H33.3462C30.3548 24 27.8948 26.2771 27.6052 29.1923H47.6833Z" fill="#008CAC"/>
<defs>
<filter id="filter0_d_1928_2718" x="0" y="0" width="87" height="87" filterUnits="userSpaceOnUse" color-interpolation-filters="sRGB">
<feFlood flood-opacity="0" result="BackgroundImageFix"/>
<feColorMatrix in="SourceAlpha" type="matrix" values="0 0 0 0 0 0 0 0 0 0 0 0 0 0 0 0 0 0 127 0" result="hardAlpha"/>
<feOffset dy="4"/>
<feGaussianBlur stdDeviation="3"/>
<feComposite in2="hardAlpha" operator="out"/>
<feColorMatrix type="matrix" values="0 0 0 0 0 0 0 0 0 0.54902 0 0 0 0 0.67451 0 0 0 0.3 0"/>
<feBlend mode="normal" in2="BackgroundImageFix" result="effect1_dropShadow_1928_2718"/>
<feBlend mode="normal" in="SourceGraphic" in2="effect1_dropShadow_1928_2718" result="shape"/>
</filter>
</defs>
</svg>
