<svg width="32" height="30" viewBox="0 0 32 30" fill="none" xmlns="http://www.w3.org/2000/svg">
<path fill-rule="evenodd" clip-rule="evenodd" d="M29.7762 19.0385H16.3777L15.3029 28.0644C15.2446 28.556 15.3992 29.0487 15.7275 29.4185C16.0563 29.7883 16.5271 30 17.0215 30H17.8846V27.1154C17.8846 26.7969 18.1431 26.5385 18.4615 26.5385C18.78 26.5385 19.0385 26.7969 19.0385 27.1154V30H22.5V27.1154C22.5 26.7969 22.7585 26.5385 23.0769 26.5385C23.3954 26.5385 23.6538 26.7969 23.6538 27.1154V30H27.1154V27.1154C27.1154 26.7969 27.3738 26.5385 27.6923 26.5385C28.0108 26.5385 28.2692 26.7969 28.2692 27.1154V30H29.1323C29.6267 30 30.0975 29.7883 30.4263 29.4185C30.7546 29.0487 30.9092 28.556 30.851 28.0644L29.7762 19.0385ZM0.639231 8.65385L2.66885 28.4458C2.75942 29.3285 3.50308 30 4.39096 30H14.7138C14.2708 29.4092 14.0694 28.6679 14.1571 27.9283L15.2198 19.0015C14.4352 18.8371 13.8462 18.1413 13.8462 17.3077V16.1538C13.8462 15.1979 14.621 14.4231 15.5769 14.4231H20.7692V8.65385H0.639231ZM2.88692 15.0525L3.46385 21.3987C3.49269 21.7154 3.77365 21.9496 4.09096 21.9208C4.40769 21.8919 4.64192 21.611 4.61308 21.2937L4.03615 14.9475C4.00731 14.6308 3.72635 14.3965 3.40904 14.4254C3.09231 14.4542 2.85808 14.7352 2.88692 15.0525ZM30.5769 15.5769H15.5769C15.2585 15.5769 15 15.8354 15 16.1538V17.3077C15 17.6262 15.2585 17.8846 15.5769 17.8846H30.5769C30.8954 17.8846 31.1538 17.6262 31.1538 17.3077V16.1538C31.1538 15.8354 30.8954 15.5769 30.5769 15.5769ZM24.2308 12.6923H21.9231V14.4231H24.2308V12.6923ZM21.9231 1.15269V11.5385H24.2308V1.15269C24.2308 0.516346 23.7144 0 23.0781 0H23.0758C22.4394 0 21.9231 0.516346 21.9231 1.15269ZM20.7692 6.34615H0.576923C0.424038 6.34615 0.276923 6.40673 0.169039 6.51519C0.0605771 6.62308 0 6.77019 0 6.92308C0 7.07596 0.0605771 7.22308 0.169039 7.33096C0.276923 7.43942 0.424038 7.5 0.576923 7.5H20.7692V6.34615ZM20.6833 5.19231C20.1127 2.20846 17.494 0 14.3977 0H6.34615C3.35481 0 0.894808 2.27712 0.605192 5.19231H20.6833Z" fill="#008CAC"/>
</svg>
