<svg width="87" height="87" viewBox="0 0 87 87" fill="none" xmlns="http://www.w3.org/2000/svg">
<g filter="url(#filter0_d_131_515)">
<circle cx="43.5" cy="39.5" r="37.5" fill="white"/>
</g>
<circle cx="43.5019" cy="39.5" r="33" fill="white" stroke="#008CAC"/>
<path fill-rule="evenodd" clip-rule="evenodd" d="M45.5138 38.9467C43.8371 36.9838 41.5587 35.6299 39.0329 35.0957L38.4549 37.1323L39.7181 45.1329C39.7348 45.2092 39.7312 45.2886 39.7077 45.3632C39.6842 45.4377 39.6416 45.5048 39.5842 45.5578L36.9696 48.0115C36.8853 48.0898 36.7746 48.1334 36.6595 48.1334C36.5445 48.1334 36.4337 48.0898 36.3495 48.0115L33.7349 45.5578C33.6841 45.5088 33.6452 45.4488 33.6213 45.3825C33.5974 45.3161 33.5891 45.2451 33.5971 45.175L34.8642 37.1361L34.2823 35.0957C31.7478 35.6326 29.4626 36.994 27.7838 38.9671C26.105 40.9403 25.1271 43.4141 25.0032 46.0018C24.9797 46.4357 25.0877 46.8667 25.3131 47.2382C25.5385 47.6097 25.8707 47.9046 26.2664 48.0843C29.2814 49.4838 32.5487 50.2582 35.8711 50.3608C39.1935 50.4634 42.5023 49.8922 45.598 48.6815C45.4937 48.4406 45.4579 48.1757 45.4947 47.9158L45.6516 46.844L44.7214 46.3081C44.5526 46.2091 44.4058 46.0766 44.2901 45.9189C44.1743 45.7611 44.0921 45.5813 44.0483 45.3906C44.0046 45.1999 44.0003 45.0022 44.0357 44.8098C44.0712 44.6173 44.1456 44.4342 44.2544 44.2715L44.8592 43.3758L44.2582 42.4839C44.1482 42.3221 44.0727 42.1394 44.0364 41.9472C44.0001 41.755 44.0038 41.5574 44.0473 41.3667C44.0908 41.176 44.173 40.9962 44.289 40.8387C44.405 40.6812 44.5522 40.5493 44.7214 40.4512L45.6516 39.9038L45.5138 38.9467ZM52.5536 44.8917C51.5238 43.4179 50.341 42.2848 48.5112 40.8072C48.4852 40.787 48.4666 40.7588 48.4583 40.7269C48.45 40.6951 48.4524 40.6614 48.4652 40.6311C48.4783 40.6003 48.5011 40.5747 48.5301 40.5581C48.5592 40.5415 48.5928 40.5349 48.626 40.5392C50.0578 40.7273 51.4143 41.2913 52.5574 42.1738C52.5993 42.2059 52.6478 42.2283 52.6994 42.2396C52.751 42.2508 52.8045 42.2506 52.856 42.2389C52.9073 42.2281 52.9559 42.2069 52.9987 42.1766C53.0415 42.1464 53.0776 42.1076 53.1048 42.0628C53.7977 40.9144 55.5662 38.3878 59.689 37.0404C59.7223 37.0288 59.7587 37.0293 59.7916 37.0419C59.8245 37.0545 59.8519 37.0784 59.869 37.1093C59.8858 37.1407 59.8913 37.1769 59.8843 37.2119C59.8773 37.2468 59.8583 37.2782 59.8307 37.3007C56.7682 39.7391 55.4591 41.7527 53.8436 44.8113C53.7814 44.9242 53.6917 45.0196 53.5828 45.0886C53.4739 45.1576 53.3493 45.1979 53.2207 45.2059C53.092 45.214 52.9634 45.1894 52.8468 45.1344C52.7302 45.0795 52.6293 44.996 52.5536 44.8917ZM53.2426 35.4096L54.1499 36.3858C54.22 36.4635 54.3124 36.5177 54.4145 36.541C54.5166 36.5643 54.6233 36.5555 54.7202 36.5159L55.9758 36.0489C56.0423 36.0231 56.1133 36.0112 56.1845 36.014C56.2557 36.0167 56.3256 36.0341 56.3898 36.0649C56.4541 36.0958 56.5113 36.1395 56.5579 36.1934C56.6046 36.2473 56.6397 36.3101 56.6611 36.3781L56.9826 37.3926C56.1997 37.8226 55.4656 38.336 54.793 38.9238C53.9003 38.5396 52.9132 38.431 51.9583 38.6117C51.0034 38.7925 50.1243 39.2544 49.4337 39.9382C49.204 39.8884 48.9705 39.8502 48.7294 39.8157C48.5349 39.79 48.3374 39.828 48.1664 39.924C47.9954 40.02 47.8601 40.1688 47.7808 40.3481C47.7014 40.5275 47.6824 40.7277 47.7264 40.9188C47.7704 41.1099 47.8752 41.2816 48.025 41.4082C48.1169 41.4809 48.2087 41.5536 48.2968 41.6302C47.9981 42.3968 47.8981 43.2265 48.0061 44.0422C48.114 44.8578 48.4263 45.6329 48.9141 46.2955C49.4019 46.958 50.0492 47.4866 50.796 47.8319C51.5428 48.1772 52.3647 48.3282 53.1854 48.2707C54.0062 48.2133 54.7991 47.9493 55.4905 47.5033C56.1818 47.0573 56.7492 46.4437 57.1399 45.7197C57.5306 44.9956 57.732 44.1845 57.7252 43.3618C57.7185 42.5391 57.5038 41.7314 57.1013 41.0139C57.7694 40.1868 58.5071 39.4183 59.3062 38.7171L59.1263 40.0339C59.1101 40.1372 59.1255 40.243 59.1706 40.3373C59.2157 40.4316 59.2884 40.51 59.379 40.5622L60.5274 41.2359C60.5903 41.2704 60.645 41.318 60.6879 41.3754C60.7309 41.4329 60.761 41.4989 60.7762 41.5689C60.7923 41.6388 60.7939 41.7113 60.7807 41.7817C60.7675 41.8522 60.7399 41.9192 60.6996 41.9786L59.934 43.0887C59.8743 43.1746 59.8422 43.2768 59.8422 43.3815C59.8422 43.4862 59.8743 43.5884 59.934 43.6744L60.6996 44.7807C60.7402 44.8398 60.7681 44.9067 60.7814 44.9772C60.7947 45.0476 60.7932 45.1201 60.777 45.1899C60.7608 45.2598 60.7302 45.3255 60.6873 45.3829C60.6443 45.4403 60.5898 45.4881 60.5274 45.5233L59.379 46.2009C59.2884 46.253 59.2157 46.3315 59.1706 46.4258C59.1255 46.5201 59.1101 46.6259 59.1263 46.7292L59.3215 48.046C59.33 48.114 59.3245 48.183 59.3054 48.2488C59.2863 48.3146 59.254 48.3759 59.2105 48.4288C59.1658 48.4883 59.108 48.5368 59.0417 48.5706C58.9753 48.6044 58.9022 48.6227 58.8277 48.624L57.4956 48.735C57.3888 48.7434 57.2872 48.7847 57.2049 48.8533C57.1226 48.9218 57.0637 49.0143 57.0362 49.1178L56.6534 50.3926C56.6325 50.461 56.5975 50.5242 56.5507 50.5783C56.5039 50.6323 56.4463 50.676 56.3816 50.7065C56.3167 50.7359 56.2462 50.7511 56.1749 50.7511C56.1036 50.7511 56.0331 50.7359 55.9682 50.7065L54.7241 50.2433C54.6272 50.2037 54.5204 50.195 54.4183 50.2183C54.3163 50.2416 54.2239 50.2957 54.1537 50.3734L53.2426 51.3611C53.1939 51.4138 53.1346 51.4557 53.0687 51.484C53.0027 51.5124 52.9316 51.5266 52.8598 51.5257C52.7879 51.5275 52.7164 51.5138 52.6504 51.4854C52.5843 51.457 52.5251 51.4146 52.477 51.3611L51.5583 50.3849C51.4872 50.3086 51.3948 50.2554 51.2931 50.2322C51.1914 50.209 51.0851 50.2168 50.9879 50.2548L49.7476 50.7218C49.6827 50.7512 49.6122 50.7664 49.5409 50.7664C49.4696 50.7664 49.3991 50.7512 49.3342 50.7218C49.2688 50.6923 49.2106 50.649 49.1637 50.5948C49.1168 50.5406 49.0822 50.4768 49.0624 50.4079L48.6566 49.1293C48.6266 49.0296 48.5669 48.9415 48.4855 48.8765C48.4042 48.8116 48.305 48.7729 48.2011 48.7657L46.8766 48.6432C46.8056 48.6366 46.7367 48.6157 46.674 48.5818C46.6113 48.5479 46.5562 48.5017 46.5118 48.4459C46.4675 48.3901 46.4349 48.3259 46.416 48.2572C46.3971 48.1884 46.3923 48.1166 46.4019 48.046L46.5933 46.7215C46.6092 46.6178 46.5932 46.5117 46.5474 46.4174C46.5016 46.323 46.4281 46.2448 46.3368 46.1932L45.1884 45.5233C45.1264 45.4877 45.0724 45.4397 45.0297 45.3822C44.9871 45.3248 44.9567 45.2592 44.9406 45.1895C44.9244 45.1198 44.9228 45.0476 44.9358 44.9772C44.9488 44.9069 44.9761 44.84 45.0162 44.7807L45.7818 43.6667C45.8415 43.5808 45.8736 43.4786 45.8736 43.3739C45.8736 43.2692 45.8415 43.167 45.7818 43.081L45.0162 41.9786C44.9728 41.9184 44.9428 41.8497 44.9279 41.777C44.9131 41.7043 44.9138 41.6294 44.9301 41.557C44.9464 41.4847 44.9778 41.4166 45.0224 41.3573C45.0669 41.298 45.1235 41.2488 45.1884 41.2129L46.3368 40.5354C46.4278 40.4844 46.5011 40.4069 46.547 40.3132C46.5928 40.2195 46.6089 40.1141 46.5933 40.0109L46.3943 38.7285C46.3789 38.6554 46.3799 38.5797 46.3971 38.5069C46.4143 38.4341 46.4473 38.366 46.4938 38.3075C46.5371 38.251 46.5919 38.2044 46.6546 38.1707C46.7173 38.137 46.7864 38.1171 46.8574 38.1122L48.1934 38.005C48.3001 37.9962 48.4014 37.9547 48.4836 37.8862C48.5657 37.8177 48.6248 37.7255 48.6528 37.6222L49.0356 36.3513C49.0598 36.2827 49.0981 36.2199 49.1479 36.1669C49.1978 36.1139 49.2581 36.0718 49.325 36.0434C49.392 36.015 49.4642 36.0008 49.5369 36.0017C49.6097 36.0027 49.6814 36.0187 49.7476 36.0489L50.9994 36.5312C51.0966 36.5692 51.2029 36.5771 51.3046 36.5539C51.4063 36.5307 51.4987 36.4774 51.5698 36.4011L52.4808 35.4288C52.5288 35.3748 52.5878 35.3318 52.6538 35.3027C52.7199 35.2737 52.7915 35.2592 52.8636 35.2603C52.9354 35.2592 53.0067 35.2733 53.0727 35.3017C53.1386 35.3301 53.1979 35.3721 53.2464 35.4249L53.2426 35.4096ZM47.9293 49.8299L48.1934 50.6759C48.254 50.8644 48.3535 51.0381 48.4853 51.1858C48.6172 51.3335 48.7786 51.4519 48.959 51.5333C49.1363 51.6218 49.3304 51.6716 49.5283 51.6795C49.7263 51.6874 49.9237 51.6533 50.1075 51.5793L51.1104 51.1965L51.8492 51.9621L51.9373 52.0501L50.1304 56.8888C50.1199 56.9171 50.1011 56.9417 50.0766 56.9594C50.0521 56.9771 50.0228 56.9872 49.9926 56.9883C49.9628 56.9899 49.9333 56.9823 49.9079 56.9666C49.8826 56.9508 49.8627 56.9277 49.851 56.9003L48.4652 53.8149C48.4386 53.7575 48.3949 53.7097 48.34 53.6782C48.2852 53.6467 48.222 53.6329 48.159 53.6388L44.7941 53.9795C44.764 53.9833 44.7333 53.9777 44.7066 53.9633C44.6798 53.9488 44.6582 53.9264 44.6448 53.8991C44.6282 53.8748 44.6193 53.8462 44.6193 53.8168C44.6193 53.7874 44.6282 53.7587 44.6448 53.7345L47.9293 49.8299ZM53.8168 52.0654L55.593 56.9003C55.6036 56.9286 55.6223 56.9532 55.6469 56.9709C55.6714 56.9886 55.7006 56.9987 55.7308 56.9998C55.7606 57.0014 55.7902 56.9938 55.8155 56.9781C55.8409 56.9623 55.8608 56.9392 55.8725 56.9117L57.2582 53.8263C57.2844 53.7686 57.328 53.7205 57.383 53.6889C57.4379 53.6573 57.5014 53.6438 57.5645 53.6503L60.9293 53.9909C60.9595 53.9948 60.9901 53.9892 61.0169 53.9748C61.0437 53.9603 61.0653 53.9379 61.0786 53.9106C61.0952 53.8863 61.1041 53.8576 61.1041 53.8283C61.1041 53.7989 61.0952 53.7702 61.0786 53.746L57.7942 49.8299L57.5262 50.6759C57.4681 50.8627 57.3721 51.0357 57.2444 51.1839C57.1166 51.3322 56.9597 51.4526 56.7835 51.5377C56.6072 51.6228 56.4153 51.6707 56.2198 51.6785C56.0242 51.6863 55.8291 51.6539 55.6466 51.5831L54.6399 51.2003L53.9049 51.9659C53.8775 51.9971 53.8481 52.0265 53.8168 52.054V52.0654ZM36.6557 22C37.7772 21.9992 38.8736 22.3311 39.8065 22.9536C40.7393 23.5761 41.4665 24.4613 41.8962 25.4971C42.3259 26.533 42.4387 27.673 42.2204 28.773C42.0021 29.873 41.4624 30.8835 40.6697 31.6768C39.877 32.47 38.8668 33.0104 37.767 33.2294C36.6671 33.4485 35.527 33.3365 34.4909 32.9075C33.4547 32.4785 32.5691 31.7518 31.9459 30.8194C31.3228 29.887 30.9902 28.7908 30.9902 27.6693C30.9902 26.1664 31.587 24.725 32.6494 23.6619C33.7117 22.5988 35.1528 22.001 36.6557 22ZM38.1333 34.9464L37.6472 36.6461H35.6642L35.1819 34.9464C36.1616 34.8188 37.1537 34.8188 38.1333 34.9464ZM35.7102 37.5533H37.6242L38.8071 45.0601L36.6557 47.0584L34.5235 45.0601L35.7102 37.5533Z" fill="#008CAC"/>
<defs>
<filter id="filter0_d_131_515" x="0" y="0" width="87" height="87" filterUnits="userSpaceOnUse" color-interpolation-filters="sRGB">
<feFlood flood-opacity="0" result="BackgroundImageFix"/>
<feColorMatrix in="SourceAlpha" type="matrix" values="0 0 0 0 0 0 0 0 0 0 0 0 0 0 0 0 0 0 127 0" result="hardAlpha"/>
<feOffset dy="4"/>
<feGaussianBlur stdDeviation="3"/>
<feComposite in2="hardAlpha" operator="out"/>
<feColorMatrix type="matrix" values="0 0 0 0 0 0 0 0 0 0.54902 0 0 0 0 0.67451 0 0 0 0.3 0"/>
<feBlend mode="normal" in2="BackgroundImageFix" result="effect1_dropShadow_131_515"/>
<feBlend mode="normal" in="SourceGraphic" in2="effect1_dropShadow_131_515" result="shape"/>
</filter>
</defs>
</svg>
