<svg width="87" height="87" viewBox="0 0 87 87" fill="none" xmlns="http://www.w3.org/2000/svg">
<g filter="url(#filter0_d_131_538)">
<circle cx="43.5" cy="39.5" r="37.5" fill="white"/>
</g>
<circle cx="43.502" cy="39.5" r="33" fill="white" stroke="#008CAC"/>
<path d="M50.2326 52.2161C50.5375 52.2161 50.7846 51.9642 50.7846 51.6535C50.7846 51.3427 50.5375 51.0908 50.2326 51.0908C49.9278 51.0908 49.6807 51.3427 49.6807 51.6535C49.6807 51.9642 49.9278 52.2161 50.2326 52.2161Z" fill="#008CAC"/>
<path d="M55.1738 33.2379V25.7715C55.1745 25.6392 55.1261 25.5114 55.0379 25.4128C54.9497 25.3143 54.828 25.252 54.6965 25.2381H54.6725H50.3686C50.2272 25.2381 50.0915 25.2943 49.9915 25.3944C49.8915 25.4944 49.8353 25.63 49.8353 25.7715V28.5154L43.9314 23.2889C43.7174 23.1026 43.4432 23 43.1595 23C42.8757 23 42.6015 23.1026 42.3875 23.2889L26.1799 37.7578C26.1274 37.8044 26.0846 37.8609 26.0538 37.924C26.0231 37.9871 26.0052 38.0557 26.001 38.1257C25.9968 38.1958 26.0064 38.266 26.0293 38.3324C26.0522 38.3987 26.088 38.4599 26.1346 38.5125C26.2286 38.6185 26.361 38.6829 26.5025 38.6914C26.5726 38.6956 26.6428 38.686 26.7092 38.6631C26.7755 38.6401 26.8367 38.6044 26.8892 38.5578L29.8572 35.9072V51.9388C29.8572 52.0802 29.9133 52.2159 30.0134 52.3159C30.1134 52.4159 30.249 52.4721 30.3905 52.4721C30.5319 52.4721 30.6676 52.4159 30.7676 52.3159C30.8676 52.2159 30.9238 52.0802 30.9238 51.9388V34.9526L43.0968 24.0862C43.1157 24.0735 43.138 24.0667 43.1608 24.0667C43.1836 24.0667 43.2059 24.0735 43.2248 24.0862L55.2245 34.7019C55.2225 34.7285 55.2225 34.7553 55.2245 34.7819V51.9361C55.2245 52.0775 55.2807 52.2132 55.3807 52.3132C55.4807 52.4132 55.6164 52.4694 55.7578 52.4694C55.8992 52.4694 56.0349 52.4132 56.1349 52.3132C56.2349 52.2132 56.2911 52.0775 56.2911 51.9361V35.6405L59.2617 38.2698C59.3142 38.3162 59.3754 38.3518 59.4417 38.3746C59.508 38.3973 59.5781 38.4068 59.648 38.4025C59.718 38.3982 59.7864 38.3801 59.8494 38.3493C59.9123 38.3185 59.9686 38.2757 60.015 38.2231C60.0614 38.1706 60.097 38.1095 60.1198 38.0432C60.1425 37.9769 60.152 37.9068 60.1477 37.8368C60.1434 37.7669 60.1253 37.6984 60.0945 37.6355C60.0638 37.5725 60.0209 37.5162 59.9684 37.4698L55.1738 33.2379Z" fill="#008CAC"/>
<path d="M43.7582 30.8752C37.3104 30.8752 32.0625 36.2858 32.0625 42.9389C32.0625 49.5921 37.3104 54.9999 43.7582 54.9999C43.9288 54.9999 44.0995 54.9999 44.2702 54.9999C44.3429 54.9967 44.4142 54.9786 44.4797 54.9468C44.5452 54.9149 44.6035 54.87 44.6509 54.8148C44.6984 54.7596 44.734 54.6953 44.7557 54.6257C44.7774 54.5562 44.7845 54.483 44.7768 54.4106C44.7142 53.8093 44.552 53.2227 44.2968 52.6747C43.976 52.0457 43.5209 51.4949 42.9635 51.0614C42.8595 50.9761 42.7271 50.9332 42.5929 50.9414C42.0421 50.9744 41.4895 50.9557 40.9423 50.8854C39.5316 50.7014 39.0756 50.4107 38.9557 50.2001C38.857 50.0347 38.9557 49.8454 39.041 49.6987C39.1383 49.5658 39.2083 49.4148 39.2467 49.2546C39.2852 49.0944 39.2914 48.9281 39.265 48.7654C39.2086 48.562 39.098 48.3776 38.945 48.2321C39.005 48.164 39.0505 48.0845 39.0789 47.9984C39.1073 47.9122 39.118 47.8212 39.1103 47.7308C39.0928 47.6072 39.0504 47.4885 38.9858 47.3817C38.9212 47.2749 38.8357 47.1823 38.7343 47.1095L38.761 47.0775C38.9442 46.9362 39.0828 46.7451 39.1604 46.5271C39.2379 46.3091 39.2511 46.0734 39.1983 45.8482C39.0986 45.5669 38.9342 45.3129 38.7183 45.1069C38.6445 45.0352 38.5768 44.9576 38.5157 44.8749L38.5663 44.8535C38.9049 44.7315 39.2302 44.5751 39.537 44.3869C40.9743 43.4989 41.0596 42.0376 41.1369 40.7496C41.15 40.3428 41.1848 39.9369 41.2409 39.5337C41.6196 41.8643 42.8649 44.0509 44.8942 45.9175C45.2168 46.2162 45.5715 46.4855 45.9155 46.7468C46.6061 47.2801 47.2488 47.7708 47.6488 48.4561L47.6674 48.4908C47.7467 48.6211 47.8137 48.7586 47.8674 48.9014C47.9091 49.0082 47.9826 49.0996 48.078 49.163C48.1735 49.2265 48.2862 49.259 48.4007 49.2561C48.5297 49.2574 48.6549 49.212 48.7529 49.1282C48.851 49.0443 48.9153 48.9278 48.934 48.8001C49.0034 48.4192 48.9879 48.0277 48.8887 47.6535C48.5314 46.3548 47.4994 45.3389 46.6541 44.5095C44.3608 42.2563 44.0728 39.8537 44.0755 38.755C44.7688 39.6323 45.8488 40.2137 46.7848 40.715C47.0221 40.843 47.2514 40.9656 47.4648 41.0883C49.3527 42.1763 51.3047 43.3016 51.2433 45.6828C51.214 46.7842 50.6353 47.9095 50.2913 48.4828C50.2263 48.6037 50.2104 48.745 50.2469 48.8773C50.2834 49.0096 50.3696 49.1228 50.4874 49.1932C50.6053 49.2636 50.7457 49.2859 50.8795 49.2554C51.0134 49.2249 51.1303 49.144 51.206 49.0294C51.6033 48.3681 52.2726 47.0561 52.3073 45.7095C52.3873 42.6936 49.95 41.2883 47.9954 40.163C47.7741 40.035 47.5341 39.8963 47.2861 39.7737C46.1715 39.1764 44.6408 38.2537 44.4328 37.3337C44.4078 37.2155 44.4087 37.0933 44.4354 36.9755C44.4621 36.8576 44.514 36.747 44.5875 36.6511C44.8213 36.2942 45.1186 35.9832 45.4648 35.7338C46.0976 35.3155 46.8396 35.093 47.5981 35.0938C48.3167 35.1251 49.0283 35.2488 49.7154 35.4618C50.6353 35.7044 51.8673 36.5284 53.1819 37.7657C53.2753 37.8391 53.3904 37.8792 53.5092 37.8797C53.6279 37.8803 53.7434 37.8411 53.8374 37.7686C53.9314 37.696 53.9985 37.5942 54.028 37.4792C54.0576 37.3642 54.0479 37.2426 54.0006 37.1337C53.0216 35.2596 51.5512 33.6872 49.7469 32.5847C47.9427 31.4822 45.8725 30.8913 43.7582 30.8752Z" fill="#008CAC"/>
<defs>
<filter id="filter0_d_131_538" x="0" y="0" width="87" height="87" filterUnits="userSpaceOnUse" color-interpolation-filters="sRGB">
<feFlood flood-opacity="0" result="BackgroundImageFix"/>
<feColorMatrix in="SourceAlpha" type="matrix" values="0 0 0 0 0 0 0 0 0 0 0 0 0 0 0 0 0 0 127 0" result="hardAlpha"/>
<feOffset dy="4"/>
<feGaussianBlur stdDeviation="3"/>
<feComposite in2="hardAlpha" operator="out"/>
<feColorMatrix type="matrix" values="0 0 0 0 0 0 0 0 0 0.54902 0 0 0 0 0.67451 0 0 0 0.3 0"/>
<feBlend mode="normal" in2="BackgroundImageFix" result="effect1_dropShadow_131_538"/>
<feBlend mode="normal" in="SourceGraphic" in2="effect1_dropShadow_131_538" result="shape"/>
</filter>
</defs>
</svg>
