<svg width="65" height="75" viewBox="0 0 65 75" fill="none" xmlns="http://www.w3.org/2000/svg">
<path d="M6.84223 3.3075L4.95223 4.3425C4.78723 4.4325 4.65223 4.5675 4.56973 4.725L3.53473 6.615L2.49973 4.7325C2.40973 4.5675 2.27473 4.4325 2.10973 4.3425L0.219727 3.3075L2.10973 2.2725C2.27473 2.19 2.40973 2.055 2.49973 1.89L3.53473 0L4.56973 1.89C4.65973 2.055 4.79473 2.1825 4.95223 2.2725L6.84223 3.3075ZM25.5172 39.435H23.9722V11.775H39.6022V39.435H37.9747V36.9075C37.9747 35.49 36.8272 34.3425 35.4097 34.3425H35.0647C33.6472 34.3425 32.4997 35.49 32.4997 36.9075V39.435H30.9997V36.9075C30.9997 35.49 29.8447 34.3425 28.4347 34.3425H28.0897C26.6722 34.3425 25.5247 35.49 25.5247 36.9075V39.435H25.5172ZM38.1472 29.7075C38.1472 29.205 37.7422 28.8 37.2397 28.8H33.5797C33.0772 28.8 32.6722 29.205 32.6722 29.7075C32.6722 30.21 33.0772 30.615 33.5797 30.615H37.2397C37.7422 30.615 38.1472 30.21 38.1472 29.7075ZM38.1472 26.0625C38.1472 25.56 37.7422 25.155 37.2397 25.155H33.5797C33.0772 25.155 32.6722 25.56 32.6722 26.0625C32.6722 26.565 33.0772 26.97 33.5797 26.97H37.2397C37.7422 26.9775 38.1472 26.565 38.1472 26.0625ZM32.6722 14.91C32.6722 15.4125 33.0772 15.8175 33.5797 15.8175H37.2397C37.7422 15.8175 38.1472 15.4125 38.1472 14.91C38.1472 14.4075 37.7422 14.0025 37.2397 14.0025H33.5797C33.0772 14.0025 32.6722 14.4075 32.6722 14.91ZM32.6722 22.425C32.6722 22.9275 33.0847 23.3325 33.5797 23.3325H37.2397C37.7422 23.3325 38.1472 22.9275 38.1472 22.425V18.7425C38.1472 18.24 37.7422 17.835 37.2397 17.835H33.5797C33.0772 17.835 32.6722 18.24 32.6722 18.7425V22.425ZM25.3672 14.91C25.3672 15.4125 25.7722 15.8175 26.2747 15.8175H29.9347C30.4372 15.8175 30.8422 15.4125 30.8422 14.91C30.8422 14.4075 30.4372 14.0025 29.9347 14.0025H26.2747C25.7797 14.0025 25.3672 14.4075 25.3672 14.91ZM29.9347 17.8275H26.2747C25.7722 17.8275 25.3672 18.2325 25.3672 18.735V22.4175C25.3672 22.92 25.7722 23.325 26.2747 23.325H29.9347C30.4372 23.325 30.8422 22.92 30.8422 22.4175V18.735C30.8497 18.2325 30.4372 17.8275 29.9347 17.8275ZM25.3672 26.0625C25.3672 26.565 25.7722 26.97 26.2747 26.97H29.9347C30.4372 26.97 30.8422 26.565 30.8422 26.0625C30.8422 25.56 30.4372 25.155 29.9347 25.155H26.2747C25.7797 25.155 25.3672 25.56 25.3672 26.0625ZM25.3672 29.7075C25.3672 30.21 25.7722 30.615 26.2747 30.615H29.9347C30.4372 30.615 30.8422 30.21 30.8422 29.7075C30.8422 29.205 30.4372 28.8 29.9347 28.8H26.2747C25.7797 28.7925 25.3672 29.205 25.3672 29.7075ZM35.4172 36.165H35.0722C34.6597 36.165 34.3297 36.5025 34.3297 36.9075V39.435H36.1672V36.9075C36.1597 36.495 35.8297 36.165 35.4172 36.165ZM36.3247 19.65H34.4872V21.51H36.3247V19.65ZM28.4347 36.165H28.0897C27.6772 36.165 27.3472 36.5025 27.3472 36.9075V39.435H29.1847V36.9075C29.1772 36.495 28.8472 36.165 28.4347 36.165ZM51.3247 75C52.5322 75 53.5147 74.0175 53.5147 72.81V66.525C52.6522 66.9525 51.7447 67.275 50.7997 67.4925V70.44C50.7997 71.4 50.0197 72.18 49.0597 72.18H14.5297C13.5697 72.18 12.7897 71.4 12.7897 70.44V4.56C12.7897 3.6 13.5697 2.82 14.5297 2.82H49.0597C50.0197 2.82 50.7997 3.6 50.7997 4.56V42.9825C51.7447 43.2 52.6522 43.5225 53.5147 43.95V2.19C53.5147 0.9825 52.5322 0 51.3247 0H12.2647C11.0572 0 10.0747 0.9825 10.0747 2.19V72.81C10.0747 74.0175 11.0572 75 12.2647 75H51.3247ZM27.1897 21.51H29.0272V19.65H27.1897V21.51ZM21.7372 60.7725C21.3547 61.155 21.1447 61.6575 21.1447 62.19C21.1447 63.3 22.0447 64.1925 23.1472 64.1925H39.1147C37.9522 63.045 37.0147 61.68 36.3772 60.18H23.1547C22.6147 60.1875 22.1122 60.39 21.7372 60.7725ZM19.3297 46.5C19.3297 47.0025 19.7347 47.4075 20.2372 47.4075H38.1097C37.0372 48.7575 36.2497 50.3175 35.7997 51.975H20.2372C19.7347 51.975 19.3297 52.38 19.3297 52.8825C19.3297 53.385 19.7347 53.79 20.2372 53.79H35.4547C35.4022 54.27 35.3722 54.75 35.3722 55.23C35.3722 56.295 35.5072 57.3375 35.7697 58.3575H23.1547C22.1347 58.3575 21.1672 58.755 20.4472 59.475C19.7272 60.195 19.3222 61.1625 19.3222 62.1825C19.3222 64.29 21.0397 66.0075 23.1472 66.0075H41.1322C41.2297 66.0075 41.3347 66 41.4322 65.9925C43.3897 67.1775 45.6322 67.8075 47.9422 67.8075C48.2872 67.8075 48.6322 67.7925 48.9697 67.7625V70.3425H14.6122V4.6425H48.9772V42.6975C48.6397 42.6675 48.2947 42.6525 47.9497 42.6525C44.9947 42.6525 42.1447 43.695 39.8797 45.585H20.2372C19.7347 45.5925 19.3297 45.9975 19.3297 46.5ZM22.1572 40.35C22.1572 40.8525 22.5697 41.2575 23.0647 41.2575H40.5247C41.0272 41.2575 41.4322 40.8525 41.4322 40.35V10.8675C41.4322 10.365 41.0197 9.96 40.5247 9.96H23.0647C22.5622 9.96 22.1572 10.365 22.1572 10.8675V40.35ZM53.9197 64.1925C52.6522 65.04 51.2422 65.6025 49.7347 65.85C49.1497 65.9475 48.5497 66 47.9497 66C45.8797 66 43.8697 65.415 42.1447 64.2975C40.1797 63.0375 38.6572 61.14 37.8547 58.9575C37.4122 57.7725 37.1947 56.52 37.1947 55.2375C37.1947 54.51 37.2697 53.775 37.4122 53.07V53.0625C37.8772 50.805 39.0847 48.72 40.8247 47.175C42.7897 45.435 45.3247 44.475 47.9572 44.475C48.5572 44.475 49.1647 44.5275 49.7422 44.625C51.2422 44.8725 52.6522 45.435 53.9197 46.2825C55.4197 47.2875 56.6122 48.6225 57.4372 50.16C58.2622 51.6975 58.7047 53.4375 58.7047 55.2375C58.7122 58.8375 56.9197 62.19 53.9197 64.1925ZM54.3697 50.8425C54.0022 50.4975 53.4247 50.52 53.0797 50.8875L45.8572 58.6425L42.2347 54.945C41.8822 54.585 41.3047 54.5775 40.9447 54.93C40.5847 55.2825 40.5772 55.86 40.9297 56.22L45.2197 60.6C45.3922 60.7725 45.6247 60.87 45.8722 60.87C45.8797 60.87 45.8797 60.87 45.8872 60.87C46.1347 60.87 46.3747 60.765 46.5397 60.5775L54.4072 52.125C54.7522 51.765 54.7372 51.1875 54.3697 50.8425ZM62.9047 41.4C62.7322 41.3025 62.5897 41.16 62.4922 40.9875L61.4647 39.1125L60.4372 40.9875C60.3397 41.16 60.1972 41.3025 60.0247 41.4L58.1497 42.4275L60.0247 43.455C60.1972 43.5525 60.3397 43.695 60.4372 43.8675L61.4647 45.7425L62.4922 43.8675C62.5897 43.695 62.7322 43.5525 62.9047 43.455L64.7797 42.4275L62.9047 41.4Z" fill="#008CAC"/>
</svg>
