<svg width="186" height="58" viewBox="0 0 186 58" fill="none" xmlns="http://www.w3.org/2000/svg">
<path d="M0 11.3385L3.74974 3.67529L36.3072 22.4241L0 11.3385Z" fill="#011F37"/>
<path d="M21.9185 10.0737L24.1505 6.80005L36.6794 19.9391L21.9185 10.0737Z" fill="#008CAC"/>
<path d="M186 43.152L182.95 53.4937L148.994 32.989L186 43.152Z" fill="#011F37"/>
<path d="M164.394 47.3034L162.445 51.8418L148.875 36.2178L164.394 47.3034Z" fill="#008CAC"/>
<path d="M161.701 28.8226H53.3448L28.3018 0H136.717L161.701 28.8226Z" fill="#011F37"/>
<path d="M158.993 57.6599H61.6031L36.5601 28.8225H133.994L158.993 57.6599Z" fill="#008CAC"/>
<path d="M76.6319 51.3658C75.6802 51.3923 74.7346 51.2057 73.8643 50.8195C72.9941 50.4333 72.2213 49.8573 71.6024 49.1338C70.2594 47.4901 69.5752 45.4058 69.6829 43.2859C69.5869 41.0738 70.2834 38.8999 71.6471 37.1554C72.2774 36.3911 73.0747 35.7817 73.9776 35.3741C74.8805 34.9665 75.865 34.7715 76.8551 34.8043C77.7956 34.7804 78.7294 34.9686 79.5872 35.355C80.445 35.7414 81.2048 36.3161 81.8101 37.0363C83.0381 38.7822 83.6896 40.8682 83.6736 43.0026C83.6576 45.137 82.9749 47.2131 81.7209 48.9403C81.1277 49.7213 80.3562 50.3491 79.4709 50.771C78.5856 51.193 77.6121 51.3969 76.6319 51.3658ZM76.7807 37.9738C76.2435 37.968 75.714 38.1022 75.2444 38.3631C74.7748 38.624 74.3812 39.0026 74.1023 39.4618C73.4493 40.5928 73.1055 41.8758 73.1055 43.1818C73.1055 44.4878 73.4493 45.7708 74.1023 46.9018C74.3974 47.3224 74.7894 47.6657 75.2453 47.9027C75.7011 48.1397 76.2074 48.2635 76.7212 48.2635C77.235 48.2635 77.7412 48.1397 78.197 47.9027C78.6529 47.6657 79.045 47.3224 79.3401 46.9018C80.0581 45.7993 80.4024 44.495 80.3221 43.1818C80.3868 41.829 80.0614 40.4861 79.3847 39.313C79.1083 38.876 78.7228 38.5185 78.2661 38.2758C77.8095 38.0332 77.2976 37.9137 76.7807 37.9291V37.9738Z" fill="white"/>
<path d="M93.5209 38.0481H88.5361V41.9913H93.1787V44.9673H88.5361V51.1425H85.3071V35.1465H93.5656V38.1225L93.5209 38.0481Z" fill="white"/>
<path d="M103.416 38.0481H98.3569V41.9913H102.999V44.9673H98.3569V51.1425H95.1279V35.1465H103.371V38.1225L103.416 38.0481Z" fill="white"/>
<path d="M113.46 51.1425H104.904V35.1167H113.162V38.0927H108.133V41.6639H112.82V44.6399H108.133V48.1665H113.49V51.1425H113.46Z" fill="white"/>
<path d="M126.927 51.1425H123.207L120.975 47.0058C120.833 46.7203 120.669 46.4466 120.484 46.1874C120.362 45.9607 120.212 45.7506 120.037 45.5625C119.901 45.3996 119.74 45.2591 119.561 45.1458C119.389 45.0468 119.194 44.9955 118.996 44.997H118.147V51.1425H114.948V35.1167H120.037C123.509 35.1167 125.245 36.565 125.245 39.4617C125.247 39.965 125.177 40.4661 125.037 40.9497C124.887 41.4006 124.672 41.8268 124.397 42.2145C123.811 42.9843 122.992 43.543 122.061 43.8066C122.289 43.8944 122.5 44.0201 122.686 44.1786C122.864 44.3572 123.088 44.5506 123.281 44.7738C123.471 44.9942 123.645 45.2279 123.802 45.4732C123.951 45.741 124.129 45.994 124.248 46.2172L126.927 51.1425ZM118.147 37.7505V42.2145H119.635C119.949 42.2314 120.262 42.1789 120.553 42.0605C120.844 41.9422 121.104 41.761 121.317 41.53C121.73 41.0745 121.954 40.4783 121.942 39.8634C121.942 38.3754 121.198 37.7802 119.71 37.7802H118.222L118.147 37.7505Z" fill="white"/>
<path d="M76.6319 51.3658C75.6802 51.3923 74.7346 51.2057 73.8643 50.8195C72.9941 50.4333 72.2213 49.8573 71.6024 49.1338C70.2594 47.4901 69.5752 45.4058 69.6829 43.2859C69.5869 41.0738 70.2834 38.8999 71.6471 37.1554C72.2774 36.3911 73.0747 35.7817 73.9776 35.3741C74.8805 34.9665 75.865 34.7715 76.8551 34.8043C77.7956 34.7804 78.7294 34.9686 79.5872 35.355C80.445 35.7414 81.2048 36.3161 81.8101 37.0363C83.0381 38.7822 83.6896 40.8682 83.6736 43.0026C83.6576 45.137 82.9749 47.2131 81.7209 48.9403C81.1277 49.7213 80.3562 50.3491 79.4709 50.771C78.5856 51.193 77.6121 51.3969 76.6319 51.3658ZM76.7807 37.9738C76.2435 37.968 75.714 38.1022 75.2444 38.3631C74.7748 38.624 74.3812 39.0026 74.1023 39.4618C73.4493 40.5928 73.1055 41.8758 73.1055 43.1818C73.1055 44.4878 73.4493 45.7708 74.1023 46.9018C74.3974 47.3224 74.7894 47.6657 75.2453 47.9027C75.7011 48.1397 76.2074 48.2635 76.7212 48.2635C77.235 48.2635 77.7412 48.1397 78.197 47.9027C78.6529 47.6657 79.045 47.3224 79.3401 46.9018C80.0581 45.7993 80.4024 44.495 80.3221 43.1818C80.3868 41.829 80.0614 40.4861 79.3847 39.313C79.1083 38.876 78.7228 38.5185 78.2661 38.2758C77.8095 38.0332 77.2976 37.9137 76.7807 37.9291V37.9738Z" fill="#011F37"/>
<path d="M93.5209 38.0481H88.5361V41.9913H93.1787V44.9673H88.5361V51.1425H85.3071V35.1465H93.5656V38.1225L93.5209 38.0481Z" fill="#011F37"/>
<path d="M103.416 38.0481H98.3569V41.9913H102.999V44.9673H98.3569V51.1425H95.1279V35.1465H103.371V38.1225L103.416 38.0481Z" fill="#011F37"/>
<path d="M113.46 51.1425H104.904V35.1167H113.162V38.0927H108.133V41.6639H112.82V44.6399H108.133V48.1665H113.49V51.1425H113.46Z" fill="#011F37"/>
<path d="M126.927 51.1425H123.207L120.975 47.0058C120.833 46.7203 120.669 46.4466 120.484 46.1874C120.362 45.9607 120.212 45.7506 120.037 45.5625C119.901 45.3996 119.74 45.2591 119.561 45.1458C119.389 45.0468 119.194 44.9955 118.996 44.997H118.147V51.1425H114.948V35.1167H120.037C123.509 35.1167 125.245 36.565 125.245 39.4617C125.247 39.965 125.177 40.4661 125.037 40.9497C124.887 41.4006 124.672 41.8268 124.397 42.2145C123.811 42.9843 122.992 43.543 122.061 43.8066C122.289 43.8944 122.5 44.0201 122.686 44.1786C122.864 44.3572 123.088 44.5506 123.281 44.7738C123.471 44.9942 123.645 45.2279 123.802 45.4732C123.951 45.741 124.129 45.994 124.248 46.2172L126.927 51.1425ZM118.147 37.7505V42.2145H119.635C119.949 42.2314 120.262 42.1789 120.553 42.0605C120.844 41.9422 121.104 41.761 121.317 41.53C121.73 41.0745 121.954 40.4783 121.942 39.8634C121.942 38.3754 121.198 37.7802 119.71 37.7802H118.222L118.147 37.7505Z" fill="#011F37"/>
<path d="M76.6319 51.3658C75.6802 51.3923 74.7346 51.2057 73.8643 50.8195C72.9941 50.4333 72.2213 49.8573 71.6024 49.1338C70.2594 47.4901 69.5752 45.4058 69.6829 43.2859C69.5869 41.0738 70.2834 38.8999 71.6471 37.1554C72.2774 36.3911 73.0747 35.7817 73.9776 35.3741C74.8805 34.9665 75.865 34.7715 76.8551 34.8043C77.7956 34.7804 78.7294 34.9686 79.5872 35.355C80.445 35.7414 81.2048 36.3161 81.8101 37.0363C83.0381 38.7822 83.6896 40.8682 83.6736 43.0026C83.6576 45.137 82.9749 47.2131 81.7209 48.9403C81.1277 49.7213 80.3562 50.3491 79.4709 50.771C78.5856 51.193 77.6121 51.3969 76.6319 51.3658ZM76.7807 37.9738C76.2435 37.968 75.714 38.1022 75.2444 38.3631C74.7748 38.624 74.3812 39.0026 74.1023 39.4618C73.4493 40.5928 73.1055 41.8758 73.1055 43.1818C73.1055 44.4878 73.4493 45.7708 74.1023 46.9018C74.3974 47.3224 74.7894 47.6657 75.2453 47.9027C75.7011 48.1397 76.2074 48.2635 76.7212 48.2635C77.235 48.2635 77.7412 48.1397 78.197 47.9027C78.6529 47.6657 79.045 47.3224 79.3401 46.9018C80.0581 45.7993 80.4024 44.495 80.3221 43.1818C80.3868 41.829 80.0614 40.4861 79.3847 39.313C79.1083 38.876 78.7228 38.5185 78.2661 38.2758C77.8095 38.0332 77.2976 37.9137 76.7807 37.9291V37.9738Z" fill="#011F37"/>
<path d="M93.5209 38.0481H88.5361V41.9913H93.1787V44.9673H88.5361V51.1425H85.3071V35.1465H93.5656V38.1225L93.5209 38.0481Z" fill="#011F37"/>
<path d="M103.416 38.0481H98.3569V41.9913H102.999V44.9673H98.3569V51.1425H95.1279V35.1465H103.371V38.1225L103.416 38.0481Z" fill="#011F37"/>
<path d="M113.46 51.1425H104.904V35.1167H113.162V38.0927H108.133V41.6639H112.82V44.6399H108.133V48.1665H113.49V51.1425H113.46Z" fill="#011F37"/>
<path d="M126.927 51.1425H123.207L120.975 47.0058C120.833 46.7203 120.669 46.4466 120.484 46.1874C120.362 45.9607 120.212 45.7506 120.037 45.5625C119.901 45.3996 119.74 45.2591 119.561 45.1458C119.389 45.0468 119.194 44.9955 118.996 44.997H118.147V51.1425H114.948V35.1167H120.037C123.509 35.1167 125.245 36.565 125.245 39.4617C125.247 39.965 125.177 40.4661 125.037 40.9497C124.887 41.4006 124.672 41.8268 124.397 42.2145C123.811 42.9843 122.992 43.543 122.061 43.8066C122.289 43.8944 122.5 44.0201 122.686 44.1786C122.864 44.3572 123.088 44.5506 123.281 44.7738C123.471 44.9942 123.645 45.2279 123.802 45.4732C123.951 45.741 124.129 45.994 124.248 46.2172L126.927 51.1425ZM118.147 37.7505V42.2145H119.635C119.949 42.2314 120.262 42.1789 120.553 42.0605C120.844 41.9422 121.104 41.761 121.317 41.53C121.73 41.0745 121.954 40.4783 121.942 39.8634C121.942 38.3754 121.198 37.7802 119.71 37.7802H118.222L118.147 37.7505Z" fill="#011F37"/>
<path d="M76.6319 51.3658C75.6802 51.3923 74.7346 51.2057 73.8643 50.8195C72.9941 50.4333 72.2213 49.8573 71.6024 49.1338C70.2594 47.4901 69.5752 45.4058 69.6829 43.2859C69.5869 41.0738 70.2834 38.8999 71.6471 37.1554C72.2774 36.3911 73.0747 35.7817 73.9776 35.3741C74.8805 34.9665 75.865 34.7715 76.8551 34.8043C77.7956 34.7804 78.7294 34.9686 79.5872 35.355C80.445 35.7414 81.2048 36.3161 81.8101 37.0363C83.0381 38.7822 83.6896 40.8682 83.6736 43.0026C83.6576 45.137 82.9749 47.2131 81.7209 48.9403C81.1277 49.7213 80.3562 50.3491 79.4709 50.771C78.5856 51.193 77.6121 51.3969 76.6319 51.3658ZM76.7807 37.9738C76.2435 37.968 75.714 38.1022 75.2444 38.3631C74.7748 38.624 74.3812 39.0026 74.1023 39.4618C73.4493 40.5928 73.1055 41.8758 73.1055 43.1818C73.1055 44.4878 73.4493 45.7708 74.1023 46.9018C74.3974 47.3224 74.7894 47.6657 75.2453 47.9027C75.7011 48.1397 76.2074 48.2635 76.7212 48.2635C77.235 48.2635 77.7412 48.1397 78.197 47.9027C78.6529 47.6657 79.045 47.3224 79.3401 46.9018C80.0581 45.7993 80.4024 44.495 80.3221 43.1818C80.3868 41.829 80.0614 40.4861 79.3847 39.313C79.1083 38.876 78.7228 38.5185 78.2661 38.2758C77.8095 38.0332 77.2976 37.9137 76.7807 37.9291V37.9738Z" fill="white"/>
<path d="M93.5209 38.0481H88.5361V41.9913H93.1787V44.9673H88.5361V51.1425H85.3071V35.1465H93.5656V38.1225L93.5209 38.0481Z" fill="white"/>
<path d="M103.416 38.0481H98.3569V41.9913H102.999V44.9673H98.3569V51.1425H95.1279V35.1465H103.371V38.1225L103.416 38.0481Z" fill="white"/>
<path d="M113.46 51.1425H104.904V35.1167H113.162V38.0927H108.133V41.6639H112.82V44.6399H108.133V48.1665H113.49V51.1425H113.46Z" fill="white"/>
<path d="M126.927 51.1425H123.207L120.975 47.0058C120.833 46.7203 120.669 46.4466 120.484 46.1874C120.362 45.9607 120.212 45.7506 120.037 45.5625C119.901 45.3996 119.74 45.2591 119.561 45.1458C119.389 45.0468 119.194 44.9955 118.996 44.997H118.147V51.1425H114.948V35.1167H120.037C123.509 35.1167 125.245 36.565 125.245 39.4617C125.247 39.965 125.177 40.4661 125.037 40.9497C124.887 41.4006 124.672 41.8268 124.397 42.2145C123.811 42.9843 122.992 43.543 122.061 43.8066C122.289 43.8944 122.5 44.0201 122.686 44.1786C122.864 44.3572 123.088 44.5506 123.281 44.7738C123.471 44.9942 123.645 45.2279 123.802 45.4732C123.951 45.741 124.129 45.994 124.248 46.2172L126.927 51.1425ZM118.147 37.7505V42.2145H119.635C119.949 42.2314 120.262 42.1789 120.553 42.0605C120.844 41.9422 121.104 41.761 121.317 41.53C121.73 41.0745 121.954 40.4783 121.942 39.8634C121.942 38.3754 121.198 37.7802 119.71 37.7802H118.222L118.147 37.7505Z" fill="white"/>
<path d="M63.3887 21.6057V19.4184C63.6248 19.6436 63.8842 19.8431 64.1624 20.0136C64.4629 20.1864 64.7763 20.3356 65.0999 20.46L66.0968 20.7576C66.4057 20.8192 66.7194 20.854 67.0342 20.8617C67.8138 20.9138 68.5872 20.6929 69.2216 20.2368C69.4753 20.0066 69.6749 19.7231 69.8061 19.4067C69.9373 19.0902 69.9969 18.7487 69.9805 18.4065C69.9809 18.0219 69.8997 17.6415 69.7424 17.2905C69.5744 16.964 69.3474 16.6714 69.0728 16.4275C68.7606 16.1537 68.4272 15.9049 68.0759 15.6835L66.8111 14.9395C66.3425 14.6934 65.8946 14.4097 65.4719 14.0913C65.0814 13.8188 64.7177 13.5099 64.3856 13.1688C64.0887 12.8241 63.8522 12.4317 63.6862 12.0081C63.496 11.5357 63.4049 11.0292 63.4184 10.5201C63.414 9.88127 63.5565 9.24996 63.8351 8.675C64.0864 8.16173 64.4531 7.71358 64.9064 7.36556C65.3592 7.02813 65.861 6.76216 66.3944 6.57693C66.959 6.40683 67.5457 6.32158 68.1354 6.32396C69.1596 6.25262 70.1848 6.44742 71.1114 6.8894V8.95772C70.2176 8.29838 69.1262 7.96256 68.0163 8.0054C67.6713 8.00317 67.3271 8.0381 66.9896 8.10956C66.6511 8.18045 66.3316 8.32247 66.0522 8.5262C65.7814 8.72683 65.5537 8.97984 65.3826 9.2702C65.1885 9.60852 65.1004 9.99727 65.1296 10.3862C65.1205 10.7369 65.1813 11.0859 65.3082 11.4129C65.4435 11.7197 65.6296 12.0014 65.8588 12.2462C66.152 12.504 66.4655 12.7379 66.7962 12.9456C67.1682 13.1688 67.5699 13.4217 68.061 13.6896C68.5403 13.9504 68.998 14.2489 69.4299 14.5824C69.8705 14.8647 70.2624 15.2164 70.5906 15.624C70.9064 15.9939 71.1716 16.4043 71.3792 16.8441C71.5946 17.4129 71.695 18.0189 71.6746 18.6268C71.6541 19.2347 71.5133 19.8325 71.2602 20.3856C71.0126 20.9014 70.639 21.3467 70.1739 21.6801C69.7334 22.0263 69.2272 22.2794 68.6859 22.4241C68.0929 22.576 67.4828 22.651 66.8706 22.6473C66.6081 22.6666 66.3445 22.6666 66.0819 22.6473C65.7559 22.6095 65.4328 22.5498 65.1148 22.4688C64.7963 22.3896 64.4831 22.2902 64.1773 22.1712C63.9015 22.0014 63.638 21.8125 63.3887 21.6057Z" fill="white"/>
<path d="M75.9178 16.2936V22.2456H74.3257V6.50255H78.1201C78.7369 6.46095 79.3556 6.54792 79.9371 6.75796C80.5185 6.968 81.05 7.29652 81.4978 7.72271C81.9136 8.1915 82.2328 8.73774 82.4371 9.33014C82.6414 9.92253 82.7267 10.5494 82.6882 11.1749C82.7435 12.533 82.2625 13.8585 81.349 14.8651C80.8944 15.3617 80.3362 15.7523 79.714 16.0094C79.0917 16.2665 78.4206 16.3839 77.7481 16.3531H75.9922L75.9178 16.2936ZM75.9178 8.13935V14.6121H77.5993C78.0595 14.644 78.5214 14.5812 78.9565 14.4276C79.3915 14.2741 79.7906 14.033 80.1289 13.7193C80.4296 13.3891 80.6598 13.0012 80.8056 12.579C80.9514 12.1569 81.0098 11.7095 80.977 11.2641C81.0323 10.8354 80.9874 10.3998 80.846 9.9913C80.7046 9.58283 80.4704 9.2127 80.1619 8.90995C79.8534 8.60719 79.4789 8.38006 79.0678 8.24636C78.6568 8.11265 78.2203 8.07602 77.7927 8.13935H75.9178Z" fill="white"/>
<path d="M92.4048 22.2455H85.188V6.50244H92.0774V8.13924H86.7504V13.377H91.6608V15.0584H86.7504V20.564H92.375V22.2455H92.4048Z" fill="white"/>
<path d="M104.279 21.5611C103.139 22.2254 101.833 22.5506 100.514 22.4985C99.6232 22.5294 98.7373 22.3502 97.9282 21.9754C97.1192 21.6006 96.4096 21.0407 95.8569 20.3409C94.6443 18.7007 94.0299 16.6947 94.116 14.6568C94.0071 12.4495 94.7112 10.279 96.095 8.55596C96.6915 7.81363 97.4488 7.21635 98.3097 6.80911C99.1706 6.40187 100.113 6.19529 101.065 6.20493C102.171 6.17051 103.27 6.38936 104.279 6.84477V8.80893C103.315 8.18018 102.186 7.85372 101.035 7.87148C100.303 7.85333 99.5766 8.00988 98.9168 8.32815C98.257 8.64642 97.6825 9.11727 97.2408 9.70173C96.2051 11.0955 95.6797 12.8028 95.7528 14.5377C95.6484 16.1797 96.1339 17.805 97.1217 19.1208C97.5467 19.6588 98.09 20.0917 98.7093 20.3858C99.3286 20.68 100.007 20.8276 100.693 20.8171C101.954 20.854 103.194 20.4892 104.234 19.7755V21.5611H104.279Z" fill="white"/>
<path d="M109.963 6.50244V8.0946H108.624V20.6384H109.963V22.2455H105.722V20.6384H107.061V7.99044H105.722V6.50244H109.963Z" fill="white"/>
<path d="M122.76 22.2457H120.974L119.486 17.7817H113.832L112.493 22.2457H110.707L115.915 6.4729H117.552L122.76 22.2457ZM119.04 16.1449L116.882 9.47866C116.78 9.13813 116.705 8.78977 116.659 8.43706C116.659 8.88346 116.495 9.21082 116.436 9.47866L114.308 16.2193L119.04 16.1449Z" fill="white"/>
<path d="M131.807 22.2455H124.724V6.50244H126.331V20.5938H131.807V22.2455Z" fill="white"/>
</svg>
