<svg width="87" height="87" viewBox="0 0 87 87" fill="none" xmlns="http://www.w3.org/2000/svg">
<g filter="url(#filter0_d_131_485)">
<circle cx="43.5" cy="39.5" r="37.5" fill="white"/>
</g>
<circle cx="43.502" cy="39.5" r="33" fill="white" stroke="#008CAC"/>
<path d="M60.3983 52.5786C61.0232 51.8587 61.4046 50.9222 61.4046 49.897C61.4046 47.6229 59.5356 45.7893 57.304 45.7893C55.0441 45.7893 53.1963 47.6442 53.1963 49.897C53.1963 50.9222 53.5778 51.8587 54.2033 52.5786H31.8576C32.4825 51.8587 32.8639 50.9222 32.8639 49.897C32.8639 47.6229 30.9948 45.7893 28.7633 45.7893C26.5033 45.7893 24.6556 47.6442 24.6556 49.897C24.6556 50.9222 25.037 51.8587 25.6625 52.5786H21V54H65.0619V52.5786H60.3983ZM57.2329 49.1864H57.3751C57.7659 49.1864 58.0858 49.5062 58.0858 49.897C58.0858 50.2879 57.7659 50.6077 57.3751 50.6077H57.2329C56.835 50.6077 56.5223 50.2879 56.5223 49.897C56.5223 49.5062 56.835 49.1864 57.2329 49.1864ZM28.6851 49.1864H28.8344C29.2252 49.1864 29.545 49.5062 29.545 49.897C29.545 50.2879 29.2252 50.6077 28.8344 50.6077H28.6851C28.2942 50.6077 27.9744 50.2879 27.9744 49.897C27.9744 49.5062 28.2942 49.1864 28.6851 49.1864Z" fill="#008CAC"/>
<path d="M64.5953 35.0439L59.2368 29.0956C59.1018 28.9464 58.9099 28.8611 58.7038 28.8611H50.46V48.5823H51.9311C52.528 46.166 54.7098 44.368 57.3038 44.368C59.8906 44.368 62.0724 46.166 62.6694 48.5823H64.0694C64.4603 48.5823 64.7801 48.2697 64.7801 47.8717V35.5201C64.7801 35.3425 64.7161 35.1719 64.5953 35.0439ZM61.6602 38.8745C61.6602 39.2725 61.3404 39.5852 60.9495 39.5852H52.8692C52.4783 39.5852 52.1585 39.2725 52.1585 38.8745V32.7769C52.1585 32.386 52.4783 32.0662 52.8692 32.0662H57.3535C57.5525 32.0662 57.7444 32.1515 57.8794 32.3007L61.4754 36.2947C61.5962 36.4298 61.6602 36.6003 61.6602 36.7709V38.8745Z" fill="#008CAC"/>
<path d="M37.9041 32.0742H33.8413V33.71H37.9041V32.0742Z" fill="#008CAC"/>
<path d="M39.3255 34.4207C39.3255 34.8132 39.0076 35.1314 38.6148 35.1314H33.1307C32.7379 35.1314 32.42 34.8132 32.42 34.4207V32.0742H29.5537V40.2525H42.1911V32.0742H39.3255V34.4207ZM32.8135 38.6188H31.168V37.1975H32.8135V38.6188ZM36.6952 38.6188H35.0497V37.1975H36.6952V38.6188ZM40.5768 38.6188H38.9313V37.1975H40.5768V38.6188Z" fill="#008CAC"/>
<path d="M21.9978 24C21.5998 24 21.2871 24.3127 21.2871 24.7107V47.8716C21.2871 48.2696 21.5998 48.5823 21.9978 48.5823H23.3907C23.9877 46.166 26.1694 44.368 28.7634 44.368C31.3503 44.368 33.532 46.166 34.129 48.5823H49.039V24H21.9978ZM43.6127 40.9632C43.6127 41.3557 43.2948 41.6739 42.902 41.6739H28.8432C28.4504 41.6739 28.1326 41.3557 28.1326 40.9632V31.3635C28.1326 30.971 28.4504 30.6528 28.8432 30.6528C34.0774 30.6528 37.752 30.6528 42.902 30.6528C43.2948 30.6528 43.6127 30.971 43.6127 31.3635V40.9632Z" fill="#008CAC"/>
<defs>
<filter id="filter0_d_131_485" x="0" y="0" width="87" height="87" filterUnits="userSpaceOnUse" color-interpolation-filters="sRGB">
<feFlood flood-opacity="0" result="BackgroundImageFix"/>
<feColorMatrix in="SourceAlpha" type="matrix" values="0 0 0 0 0 0 0 0 0 0 0 0 0 0 0 0 0 0 127 0" result="hardAlpha"/>
<feOffset dy="4"/>
<feGaussianBlur stdDeviation="3"/>
<feComposite in2="hardAlpha" operator="out"/>
<feColorMatrix type="matrix" values="0 0 0 0 0 0 0 0 0 0.54902 0 0 0 0 0.67451 0 0 0 0.3 0"/>
<feBlend mode="normal" in2="BackgroundImageFix" result="effect1_dropShadow_131_485"/>
<feBlend mode="normal" in="SourceGraphic" in2="effect1_dropShadow_131_485" result="shape"/>
</filter>
</defs>
</svg>
