<svg width="33" height="35" viewBox="0 0 33 35" fill="none" xmlns="http://www.w3.org/2000/svg">
<path d="M13.8833 12.911C9.37218 12.911 5.67773 16.6055 5.67773 21.1166C5.67773 25.6277 9.37218 29.3222 13.8833 29.3222C18.3944 29.3222 22.0888 25.6277 22.0888 21.1166C22.0888 16.6055 18.3944 12.911 13.8833 12.911ZM7.62218 22.3999C7.62218 22.6333 7.42773 22.7888 7.23329 22.7888C6.99996 22.7888 6.8444 22.5944 6.8444 22.3999V19.8333C6.8444 19.5999 7.03885 19.4444 7.23329 19.4444C7.46662 19.4444 7.62218 19.6388 7.62218 19.8333V22.3999Z" fill="#008CAC"/>
<path d="M25.8613 10.1501L27.7669 11.5501V7.2334H25.8613V10.1501Z" fill="#008CAC"/>
<path d="M27.3 0H0.466667C0.194444 0 0 0.194444 0 0.466667V6.41667H27.7667V0.466667C27.7667 0.194444 27.5722 0 27.3 0ZM4.39444 5.17222C3.30556 5.17222 2.45 4.27778 2.45 3.22778C2.45 2.17778 3.34444 1.28333 4.39444 1.28333C5.44444 1.28333 6.33889 2.17778 6.33889 3.22778C6.33889 4.27778 5.48333 5.17222 4.39444 5.17222ZM10.7333 5.17222C9.64444 5.17222 8.78889 4.27778 8.78889 3.22778C8.78889 2.17778 9.68333 1.28333 10.7333 1.28333C11.8222 1.28333 12.6778 2.17778 12.6778 3.22778C12.6778 4.27778 11.7833 5.17222 10.7333 5.17222ZM17.0333 5.17222C15.9444 5.17222 15.0889 4.27778 15.0889 3.22778C15.0889 2.17778 15.9833 1.28333 17.0333 1.28333C18.1222 1.28333 18.9778 2.17778 18.9778 3.22778C18.9778 4.27778 18.1222 5.17222 17.0333 5.17222ZM23.3722 5.17222C22.2833 5.17222 21.4278 4.27778 21.4278 3.22778C21.4278 2.17778 22.3222 1.28333 23.3722 1.28333C24.4611 1.28333 25.3167 2.17778 25.3167 3.22778C25.3167 4.27778 24.4611 5.17222 23.3722 5.17222Z" fill="#008CAC"/>
<path d="M24.2278 34.8057C24.15 34.689 24.0722 34.6112 23.9944 34.4946C23.9556 34.4557 23.9167 34.3779 23.8778 34.339C23.8 34.2223 23.7222 34.1057 23.6444 33.989C23.6056 33.9501 23.6056 33.9112 23.5667 33.8723C23.4889 33.7168 23.4111 33.5223 23.3333 33.3668C23.3333 33.3279 23.2944 33.289 23.2944 33.2501C23.2556 33.1334 23.2167 32.9779 23.1778 32.8223C23.1778 32.7446 23.1389 32.7057 23.1389 32.6279C23.1 32.5112 23.1 32.3557 23.0611 32.239C23.0611 32.2001 23.0611 32.1223 23.0222 32.0834C22.9833 31.889 22.9833 31.6946 22.9833 31.5001C22.9833 29.5946 23.9944 27.8834 25.6667 26.989V15.2446C23.9944 14.3501 22.9833 12.639 22.9833 10.7334C22.9833 10.539 22.9833 10.3446 23.0222 10.1501C23.0222 10.1112 23.0222 10.0334 23.0611 9.99456C23.0611 9.87789 23.1 9.72233 23.1389 9.60567C23.1389 9.52789 23.1778 9.489 23.1778 9.41122C23.2167 9.25567 23.2556 9.139 23.2944 8.98344C23.2944 8.94456 23.3333 8.90567 23.3333 8.86678C23.4111 8.71122 23.4889 8.51678 23.5667 8.36122C23.6056 8.32233 23.6056 8.28344 23.6444 8.24456C23.7222 8.12789 23.8 8.01122 23.8778 7.89455C23.9167 7.85567 23.9556 7.77789 23.9944 7.739C24.0722 7.62233 24.15 7.54456 24.2278 7.42789C24.2667 7.389 24.3056 7.35011 24.3444 7.31122C24.3444 7.27233 24.3833 7.27233 24.3833 7.23344H0V34.5334C0 34.8057 0.194444 35.0001 0.466667 35.0001H24.4222C24.4222 34.9612 24.3833 34.9612 24.3833 34.9223C24.3056 34.8834 24.2667 34.8446 24.2278 34.8057ZM13.8833 31.7723C8.01111 31.7723 3.18889 26.989 3.18889 21.0779C3.18889 15.1668 7.97222 10.3834 13.8833 10.3834C19.7944 10.3834 24.5778 15.1668 24.5778 21.0779C24.5778 26.989 19.7556 31.7723 13.8833 31.7723Z" fill="#008CAC"/>
<path d="M30.0619 27.5722C29.9063 27.4944 29.8286 27.3777 29.8286 27.2222V15.0111C29.8286 14.8555 29.9063 14.7388 30.0619 14.6611C31.5786 13.9222 32.5119 12.4055 32.5119 10.7333C32.5119 9.56662 32.0452 8.47773 31.2674 7.69995V10.3833C31.2674 10.5 31.1897 10.6166 31.1119 10.6944L28.4286 12.6388C28.4286 12.6388 28.4286 12.6388 28.3897 12.6388C28.3897 12.6388 28.3897 12.6388 28.3508 12.6777C28.3508 12.6777 28.3508 12.6777 28.3119 12.6777C28.273 12.7166 28.1952 12.7166 28.1563 12.7166C28.1174 12.7166 28.0786 12.7166 28.0397 12.7166C28.0008 12.7166 27.9619 12.6777 27.923 12.6777L25.2397 10.7333C25.123 10.6555 25.0841 10.5388 25.0841 10.4222V7.73884C25.0452 7.77773 25.0063 7.81662 24.9674 7.85551C24.9286 7.8944 24.8897 7.93328 24.8508 7.97217C24.773 8.04995 24.6952 8.16662 24.6563 8.2444C24.6174 8.28329 24.6174 8.32217 24.5786 8.36106C24.5008 8.47773 24.423 8.63328 24.3452 8.78884C24.3452 8.78884 24.3452 8.82773 24.3063 8.82773C24.2286 8.9444 24.1897 9.06106 24.1508 9.21662C24.1508 9.25551 24.1119 9.33328 24.1119 9.37217C24.073 9.48884 24.0341 9.56662 23.9952 9.68328C23.9952 9.72217 23.9563 9.79995 23.9563 9.83884C23.9174 9.95551 23.9174 10.0722 23.8786 10.15C23.8786 10.1888 23.8786 10.2666 23.8397 10.3055C23.8397 10.4611 23.8008 10.6166 23.8008 10.8111C23.8008 11.0055 23.8008 11.2388 23.8397 11.4333C24.0341 12.8333 24.9286 14.0777 26.2508 14.7388C26.4063 14.8166 26.4841 14.9333 26.4841 15.0888V27.2222C26.4841 27.3777 26.4063 27.4944 26.2508 27.5722C24.9286 28.2333 24.0341 29.4388 23.8397 30.8777C23.8008 31.0722 23.8008 31.3055 23.8008 31.5C23.8008 31.6555 23.8008 31.8111 23.8397 32.0055C23.8397 32.0444 23.8397 32.1222 23.8786 32.1611C23.8786 32.2777 23.9174 32.3944 23.9563 32.4722C23.9563 32.5111 23.9952 32.5888 23.9952 32.6277C24.0341 32.7444 24.073 32.8222 24.1119 32.9388C24.1119 32.9777 24.1508 33.0555 24.1508 33.0944C24.1897 33.2111 24.2674 33.3666 24.3063 33.4833C24.3063 33.5222 24.3063 33.5222 24.3452 33.5611C24.423 33.7166 24.5008 33.8333 24.5786 33.95C24.6174 33.9888 24.6174 34.0277 24.6563 34.0666C24.7341 34.1444 24.773 34.2611 24.8508 34.3388C24.8897 34.3777 24.9286 34.4166 24.9674 34.4555C25.0063 34.4944 25.0452 34.5333 25.0841 34.5722V31.8888C25.0841 31.7722 25.1619 31.6555 25.2397 31.5777L27.923 29.6333C27.9619 29.5944 28.0008 29.5944 28.0397 29.5944H28.0786C28.1174 29.5944 28.1174 29.5944 28.1563 29.5944H28.1952C28.2341 29.5944 28.2341 29.5944 28.273 29.5944H28.3119H28.3508C28.3508 29.5944 28.3508 29.5944 28.3897 29.6333C28.3897 29.6333 28.3897 29.6333 28.4286 29.6333L31.1119 31.5777C31.2286 31.6555 31.2674 31.7722 31.2674 31.8888V34.5722C32.0841 33.7555 32.5119 32.6666 32.5119 31.5C32.5119 29.8277 31.5786 28.3111 30.0619 27.5722ZM28.8952 25.9388C28.8952 26.4833 28.5452 26.95 28.1563 26.95C27.7674 26.95 27.4174 26.4833 27.4174 25.9388V16.2944C27.4174 15.75 27.7286 15.2833 28.1563 15.2833C28.5841 15.2833 28.8952 15.75 28.8952 16.2944V25.9388Z" fill="#008CAC"/>
<path d="M25.8613 35H27.3002C27.5724 35 27.7669 34.8056 27.7669 34.5334V30.6833L25.8613 32.0833V35Z" fill="#008CAC"/>
</svg>
