<svg width="22" height="35" viewBox="0 0 22 35" fill="none" xmlns="http://www.w3.org/2000/svg">
<path d="M21.7058 32.0092V33.8011C21.7058 34.4621 21.1678 35 20.5068 35H13.0879C13.0883 34.8966 13.0891 34.794 13.0908 34.6923C13.0924 34.5889 13.0945 34.4863 13.0973 34.3845C13.1023 34.2134 13.1092 34.0448 13.1178 33.8798C13.14 33.447 13.1741 33.0313 13.2208 32.628H20.0698C20.4334 32.628 20.7789 32.5492 21.0903 32.408C21.197 32.3596 21.3 32.3038 21.398 32.241C21.5068 32.1717 21.6098 32.0941 21.7058 32.0092Z" fill="#008CAC"/>
<path d="M21.7049 1.68312C21.7049 1.67984 21.7045 1.67696 21.7041 1.67368C21.7033 1.6663 21.7025 1.65891 21.7012 1.65152C21.7004 1.64578 21.6992 1.64004 21.6979 1.63429C21.6967 1.62855 21.6951 1.6228 21.6934 1.61706C21.6926 1.61501 21.6922 1.61254 21.6914 1.61008C21.6877 1.59859 21.6836 1.5871 21.6783 1.57603C21.6754 1.56946 21.6721 1.5629 21.6684 1.55633C21.6639 1.54771 21.6586 1.5391 21.6532 1.53089C21.652 1.52884 21.6508 1.5272 21.6495 1.52515L21.073 0.708617C20.7596 0.265064 20.2483 0 19.7055 0H2.00029C1.45744 0 0.94619 0.265064 0.632709 0.708617L0.0562132 1.52515C0.0549822 1.5272 0.0537514 1.52884 0.0525205 1.53089C0.0471863 1.5391 0.0418524 1.54771 0.037339 1.55633C0.0336461 1.5629 0.0303633 1.56946 0.0274911 1.57603C0.022157 1.5871 0.0180542 1.59859 0.0143613 1.61008C0.0135407 1.61254 0.0131303 1.61501 0.0123096 1.61706C0.0106684 1.6228 0.00902706 1.62855 0.00779611 1.63429C0.00656516 1.64004 0.00533414 1.64578 0.00451351 1.65152C0.00328256 1.65891 0.00246162 1.6663 0.00164099 1.67368C0.00123067 1.67696 0.000820808 1.67984 0.000820808 1.68312C1.75324e-07 1.68968 0 1.69625 0 1.70281V10.61C0.0960141 10.525 0.199004 10.4475 0.307737 10.3781C0.405803 10.3154 0.508792 10.2596 0.615475 10.2111C0.926905 10.07 1.27239 9.99121 1.63593 9.99121H20.0698C20.4334 9.99121 20.7788 10.07 21.0903 10.2111C21.197 10.2596 21.2999 10.3154 21.398 10.3781C21.5067 10.4475 21.6097 10.525 21.7057 10.61V1.70281C21.7057 1.69625 21.7057 1.68968 21.7049 1.68312ZM13.9274 6.12028C12.2644 5.87122 10.6658 5.27872 8.99947 5.05223C7.12022 4.7966 5.17819 5.02145 3.40522 5.69642L3.08476 2.01055H18.621L18.3235 5.43136C17.0696 6.2442 15.4258 6.34431 13.9274 6.12028Z" fill="#008CAC"/>
<path d="M13.1228 28.9548C13.0526 29.2896 12.9722 29.6244 12.8926 29.9535C12.8085 30.3035 12.7211 30.6658 12.6472 31.0244C12.4638 31.9111 12.3502 32.8315 12.2985 33.8376C12.289 34.0165 12.2821 34.1991 12.2771 34.3845C12.2743 34.4863 12.2722 34.5889 12.2706 34.6923C12.2689 34.794 12.2681 34.8966 12.2677 35H9.43897C9.43856 34.8966 9.43774 34.794 9.4361 34.6923C9.43446 34.5889 9.4324 34.4863 9.42953 34.3845C9.42461 34.1991 9.41763 34.0169 9.4082 33.838C9.3565 32.8315 9.24284 31.9111 9.05943 31.0244C8.98557 30.6654 8.89817 30.3035 8.81365 29.9531C8.76769 29.7627 8.72051 29.5674 8.67578 29.3729C8.67906 29.37 8.68276 29.3676 8.68604 29.3651C8.69835 29.3553 8.71107 29.3458 8.72379 29.3364C8.73938 29.3245 8.75497 29.3134 8.77097 29.3019C8.78862 29.2896 8.80626 29.2777 8.82432 29.2658C8.83909 29.2564 8.85386 29.247 8.86904 29.2379C8.88586 29.2277 8.90269 29.2174 8.91992 29.2076C8.94167 29.1953 8.96382 29.1834 8.98598 29.1715C9.0065 29.1608 9.02701 29.1505 9.04794 29.1403C9.05409 29.1374 9.05984 29.1345 9.06558 29.1321C9.08446 29.123 9.10333 29.1144 9.12221 29.1062C9.12508 29.105 9.12754 29.1038 9.13041 29.1025C9.15052 29.0943 9.17021 29.0857 9.19032 29.0779C9.19237 29.0767 9.19442 29.0759 9.19647 29.0754C9.21699 29.0672 9.2375 29.0594 9.25802 29.0521C9.28182 29.0434 9.30562 29.0352 9.32983 29.0274C9.33475 29.0258 9.34008 29.0242 9.34501 29.0225C9.36757 29.0155 9.39014 29.009 9.41312 29.0024C9.43487 28.9963 9.45702 28.9905 9.47918 28.9848C9.49108 28.9815 9.50298 28.9786 9.51529 28.9761C9.53334 28.972 9.55181 28.9679 9.57027 28.9638C9.57068 28.9638 9.57068 28.9638 9.57068 28.9638C9.58915 28.9601 9.60802 28.9565 9.62689 28.9532C9.63879 28.9507 9.65069 28.9487 9.663 28.9466C9.68188 28.9433 9.70075 28.9404 9.71963 28.938C9.74753 28.9339 9.77543 28.9306 9.80333 28.9277C10.2083 28.8855 10.6252 28.9437 11.0663 29.0057C11.3227 29.0414 11.5878 29.0783 11.8574 29.096C11.9464 29.1017 12.0872 29.107 12.2566 29.1001C12.2718 29.0997 12.287 29.0988 12.3026 29.0976C12.3046 29.098 12.3067 29.0976 12.3091 29.0976C12.3178 29.0972 12.3264 29.0968 12.335 29.096C12.3436 29.0955 12.3522 29.0951 12.3608 29.0943C12.3813 29.0931 12.4023 29.0914 12.4236 29.0898C12.4261 29.0894 12.4285 29.0894 12.431 29.089C12.4388 29.0886 12.4462 29.0878 12.454 29.0869C12.495 29.0832 12.5369 29.0787 12.5791 29.0734C12.6325 29.0668 12.6866 29.0586 12.742 29.0488C12.7531 29.0467 12.7642 29.0447 12.7748 29.0426C12.7917 29.0397 12.8085 29.0365 12.8253 29.0328C12.8602 29.0258 12.8951 29.018 12.9304 29.0094C12.9476 29.0053 12.9648 29.0008 12.9821 28.9963C13.0059 28.9901 13.0301 28.9831 13.0539 28.9761C13.0731 28.9704 13.0924 28.9647 13.1117 28.9585C13.1154 28.9573 13.1191 28.956 13.1228 28.9548Z" fill="#008CAC"/>
<path d="M8.61788 35H1.19894C0.537925 35 0 34.4621 0 33.8011V32.0092C0.0960141 32.0941 0.199004 32.1717 0.307737 32.241C0.405803 32.3038 0.508792 32.3596 0.615475 32.408C0.926905 32.5492 1.27239 32.628 1.63593 32.628H8.48494C8.53171 33.0313 8.56577 33.4474 8.58792 33.8802C8.59654 34.0452 8.60352 34.2134 8.60844 34.3845C8.61131 34.4863 8.61336 34.5889 8.61501 34.6923C8.61665 34.794 8.61747 34.8966 8.61788 35Z" fill="#008CAC"/>
<path d="M21.398 11.4794C21.3098 11.3613 21.2064 11.2554 21.0903 11.1643C20.8088 10.9436 20.4543 10.8118 20.0698 10.8118H17.658L16.8222 12.5454C16.6749 12.8511 16.3601 13.0493 16.0208 13.0505L5.69314 13.0866H5.68986C5.34725 13.0866 5.03089 12.8868 4.88359 12.577L4.04408 10.8118H1.63593C1.25147 10.8118 0.896952 10.9436 0.615475 11.1643C0.499355 11.2554 0.395955 11.3613 0.307737 11.4794C0.150996 11.6899 0.0426729 11.9386 0 12.2086V30.411C0.0426729 30.681 0.150996 30.9297 0.307737 31.1397C0.395955 31.2579 0.499355 31.3638 0.615475 31.4549C0.896952 31.6756 1.25147 31.8073 1.63593 31.8073H8.37005C8.33558 31.5993 8.29742 31.3937 8.25557 31.1902C8.18417 30.8447 8.09842 30.4894 8.01553 30.1455C8.00815 30.1148 8.00076 30.0844 7.99297 30.0532L7.98763 30.0586L7.86207 29.4985L7.81407 29.2847L7.77386 29.1021L7.77509 29.1009C7.60645 28.2938 7.47145 27.3611 7.61424 26.4137C7.6483 26.1794 7.85469 26.0014 8.0939 26.0014H13.6118C13.8511 26.0014 14.0574 26.1794 14.0919 26.4158C14.1071 26.5155 14.119 26.6164 14.1284 26.719C14.1686 27.1593 14.1567 27.6283 14.0931 28.1432L14.0923 28.1485L14.0812 28.2425L14.08 28.2441C13.9938 28.8863 13.8396 29.5264 13.6902 30.146C13.6073 30.4894 13.5216 30.8447 13.4502 31.1902C13.4083 31.3937 13.3702 31.5993 13.3357 31.8073H20.0698C20.4543 31.8073 20.8088 31.6756 21.0903 31.4549C21.2064 31.3638 21.3098 31.2579 21.398 31.1397C21.5547 30.9297 21.6631 30.681 21.7057 30.411V12.2086C21.6631 11.9386 21.5547 11.6899 21.398 11.4794ZM3.91852 28.2052H3.09789V26.6484H3.91852V28.2052ZM3.91852 25.3215H3.09789V18.511H3.91852V25.3215ZM10.5246 13.6853L11.1811 13.6828V14.2384C11.1811 14.272 11.1536 14.2995 11.12 14.2995H10.5858C10.5521 14.2995 10.5246 14.272 10.5246 14.2384V13.6853ZM10.8529 23.967C10.063 23.967 9.42087 23.3244 9.42087 22.5346C9.42087 22.0537 9.72655 21.5982 10.0811 21.071C10.287 20.7649 10.5 20.4481 10.6682 20.101L10.8586 19.7087L11.0396 20.1055C11.2176 20.4961 11.445 20.8318 11.6649 21.1563C11.9977 21.6475 12.2849 22.0713 12.2849 22.5346C12.2849 23.3244 11.6427 23.967 10.8529 23.967ZM13.0739 17.5854C13.0239 18.0814 12.6107 18.4614 12.1121 18.4696L9.62438 18.511C9.11313 18.5192 8.68066 18.1344 8.62978 17.6251L8.23792 13.6931L9.57309 13.6886V15.6519C9.57309 15.8218 9.71055 15.9593 9.88042 15.9593H11.8253C11.9952 15.9593 12.1326 15.8218 12.1326 15.6519V13.6795L13.4691 13.675L13.0739 17.5854Z" fill="#008CAC"/>
<path d="M7.48666 11.4888H6.625V12.3094H7.48666V11.4888Z" fill="#008CAC"/>
<path d="M9.08627 11.4889H8.22461V12.3095H9.08627V11.4889Z" fill="#008CAC"/>
<path d="M13.4828 11.4888H12.6211V12.3094H13.4828V11.4888Z" fill="#008CAC"/>
<path d="M15.0824 11.4888H14.2207V12.3094H15.0824V11.4888Z" fill="#008CAC"/>
<path d="M11.8778 11.4888H9.82617V12.3094H11.8778V11.4888Z" fill="#008CAC"/>
</svg>
