<svg width="59" height="75" viewBox="0 0 59 75" fill="none" xmlns="http://www.w3.org/2000/svg">
<path d="M38.8754 10.7143H20.1254V0H38.8754V10.7143ZM58.9647 10.7143V69.6429C58.9647 71.0637 58.4003 72.4263 57.3956 73.4309C56.391 74.4356 55.0284 75 53.6076 75H5.39328C3.97247 75 2.60986 74.4356 1.6052 73.4309C0.600544 72.4263 0.0361328 71.0637 0.0361328 69.6429V10.7143C0.0361328 9.29348 0.600544 7.93087 1.6052 6.92621C2.60986 5.92155 3.97247 5.35714 5.39328 5.35714H14.7683V10.7143C14.7683 12.1351 15.3327 13.4977 16.3373 14.5024C17.342 15.507 18.7046 16.0714 20.1254 16.0714H38.8754C40.2962 16.0714 41.6588 15.507 42.6635 14.5024C43.6681 13.4977 44.2326 12.1351 44.2326 10.7143V5.35714H53.6076C55.0284 5.35714 56.391 5.92155 57.3956 6.92621C58.4003 7.93087 58.9647 9.29348 58.9647 10.7143ZM13.429 29.4643C13.6086 29.4584 13.7875 29.4405 13.9647 29.4107C14.1326 29.3816 14.2951 29.3274 14.4468 29.25C14.6176 29.1915 14.7797 29.1104 14.929 29.0089L15.3308 28.6875C15.446 28.5602 15.5533 28.4261 15.6522 28.2857C15.7537 28.1364 15.8347 27.9743 15.8933 27.8036C15.9707 27.6518 16.0248 27.4893 16.054 27.3214C16.0838 27.1443 16.1017 26.9653 16.1076 26.7857C16.0972 26.0766 15.8198 25.3975 15.3308 24.8839L14.929 24.5625C14.7797 24.461 14.6176 24.38 14.4468 24.3214C14.2951 24.2441 14.1326 24.1899 13.9647 24.1607C13.5302 24.0805 13.0828 24.1042 12.6592 24.2299C12.2356 24.3556 11.8477 24.5797 11.5272 24.8839C11.2851 25.14 11.0941 25.4401 10.9647 25.7679C10.8275 26.0899 10.7547 26.4357 10.7504 26.7857C10.7557 27.4958 11.0338 28.1767 11.5272 28.6875C11.7877 28.9239 12.0867 29.1141 12.4111 29.25C12.7332 29.3873 13.079 29.4601 13.429 29.4643ZM44.8968 41.0786C44.6633 40.8154 44.3802 40.6008 44.0638 40.4471C43.7473 40.2933 43.4036 40.2034 43.0524 40.1825C42.7012 40.1616 42.3493 40.2102 42.0168 40.3253C41.6843 40.4404 41.3778 40.6199 41.1147 40.8536L24.8156 55.3179L17.929 48.9268C17.4058 48.4584 16.7197 48.2141 16.0182 48.2466C15.3167 48.2791 14.6561 48.5858 14.1785 49.1006C13.7009 49.6154 13.4446 50.2972 13.4647 50.9991C13.4849 51.701 13.7798 52.367 14.2861 52.8536L22.954 60.8893C23.4417 61.3413 24.08 61.5957 24.7449 61.6032C25.4098 61.6106 26.0537 61.3705 26.5513 60.9295L44.6718 44.858C45.2025 44.3865 45.5243 43.7235 45.5665 43.0149C45.6087 42.3062 45.3679 41.6098 44.8968 41.0786ZM48.2504 26.7857C48.2504 26.0753 47.9682 25.394 47.4659 24.8917C46.9636 24.3893 46.2822 24.1071 45.5718 24.1071H21.4647C20.7543 24.1071 20.073 24.3893 19.5707 24.8917C19.0683 25.394 18.7861 26.0753 18.7861 26.7857C18.7861 27.4961 19.0683 28.1774 19.5707 28.6798C20.073 29.1821 20.7543 29.4643 21.4647 29.4643H45.5718C46.2822 29.4643 46.9636 29.1821 47.4659 28.6798C47.9682 28.1774 48.2504 27.4961 48.2504 26.7857Z" fill="#008CAC"/>
</svg>
