<svg width="15" height="21" viewBox="0 0 15 21" fill="none" xmlns="http://www.w3.org/2000/svg">
<path d="M5.44812 13.9413C6.26535 15.0896 6.99294 16.0275 7.3688 16.5C8.53777 15.031 13.1204 9.0621 13.1204 6.25161C13.1204 3.0792 10.541 0.5 7.3688 0.5C4.19661 0.5 1.61719 3.07942 1.61719 6.25161C1.61719 8.14471 3.6965 11.4689 5.4104 13.8862C5.42419 13.9034 5.43777 13.9206 5.44812 13.9413ZM7.3688 3.77923C8.73432 3.77923 9.84119 4.88956 9.84119 6.25161C9.84119 7.61367 8.73429 8.724 7.3688 8.724C6.0033 8.724 4.89972 7.61367 4.89972 6.25161C4.89972 4.88956 6.00662 3.77923 7.3688 3.77923Z" fill="white"/>
<path d="M0 17.0517C0 18.9862 3.23796 20.5 7.36905 20.5C11.5001 20.5 14.7381 18.9862 14.7381 17.0517C14.7381 15.6069 12.9726 14.3827 10.1932 13.8621C10.0449 14.0759 9.90012 14.2827 9.75528 14.4862C8.65183 16.0276 7.73113 17.1552 7.63802 17.2724C7.57251 17.3517 7.47251 17.3965 7.36905 17.3965C7.26905 17.3965 7.16905 17.3517 7.10354 17.2724C7.00699 17.1552 6.08629 16.0276 4.98284 14.4862C4.84146 14.2827 4.69319 14.0758 4.5449 13.8621C1.76554 14.3828 0 15.6069 0 17.0517Z" fill="white"/>
</svg>
