<svg width="24" height="15" viewBox="0 0 24 15" fill="none" xmlns="http://www.w3.org/2000/svg">
<path fill-rule="evenodd" clip-rule="evenodd" d="M23.0022 1.28018L16.2411 7.5909C15.7886 8.01311 15.1755 8.25017 14.5368 8.25017H9.43892C8.8002 8.25017 8.18709 8.01312 7.73457 7.5909L0.973548 1.28018C0.820006 1.58018 0.738037 1.911 0.738037 2.25V12.75C0.738037 13.347 0.992021 13.9192 1.4444 14.3407C1.89605 14.7629 2.50915 15 3.14875 15H20.8273C21.467 15 22.08 14.7629 22.5317 14.3407C22.984 13.9192 23.238 13.347 23.238 12.75V2.25C23.238 1.91099 23.1561 1.58018 23.0025 1.28018H23.0022ZM2.10929 0.21981L8.87077 6.5301C9.0218 6.67123 9.22592 6.74991 9.43883 6.74991H14.5367C14.7496 6.74991 14.9537 6.67123 15.1047 6.5301L21.8662 0.21981C21.5448 0.0765043 21.1903 0 20.8271 0H3.14856C2.78534 0 2.4309 0.0765085 2.10948 0.21981H2.10929Z" fill="white"/>
</svg>
