<svg width="21" height="21" viewBox="0 0 21 21" fill="none" xmlns="http://www.w3.org/2000/svg">
<path d="M20.3147 15.9871C20.0436 15.6843 19.21 14.9296 18.6131 14.4801C18.0271 14.0195 17.0673 13.3965 16.6936 13.2035C16.0831 12.886 15.1631 12.9214 14.5916 13.3055V13.3054C14.122 13.6321 13.687 14.0063 13.2936 14.4218L13.2849 14.4307V14.4308C13.0701 14.6578 12.7816 14.8011 12.4707 14.8351C12.16 14.869 11.8473 14.7916 11.5885 14.6164C10.6151 13.9526 9.70664 13.1982 8.87513 12.3635C8.04045 11.5321 7.28612 10.6235 6.62233 9.65016C6.4471 9.39137 6.36968 9.07858 6.40358 8.76789C6.43762 8.45706 6.58089 8.16856 6.80786 7.9537L6.81679 7.94505H6.81693C7.2324 7.55161 7.60655 7.11664 7.9333 6.64702C8.31723 6.07558 8.3528 5.15563 8.03528 4.54501C7.84234 4.17154 7.21927 3.21295 6.75877 2.62547C6.3087 2.02864 5.55451 1.19491 5.25179 0.923828C4.7575 0.478498 3.92282 0.362424 3.34035 0.679684C2.8511 0.95759 2.39281 1.28655 1.97316 1.66128L1.92907 1.70034C-0.646019 3.91564 1.04932 10.0991 6.09804 15.1381C11.1399 20.1879 17.3213 21.8843 19.5367 19.3093L19.5758 19.2652V19.2651C19.9506 18.8455 20.2798 18.3872 20.5575 17.8978C20.8759 17.3158 20.7598 16.4811 20.3145 15.9869L20.3147 15.9871Z" fill="white"/>
</svg>
